<svg width="13" height="15" viewBox="0 0 13 15" fill="none" xmlns="http://www.w3.org/2000/svg">
<path d="M0 4.73684H2.36842V3.94737H3.15789V3.15789H3.94737V2.36842H3.15789V1.57895H2.36842V0.789474H3.15789V0H3.94737V0.789474H4.73684V1.57895H5.52632V2.36842H7.10526V1.57895H7.89474V0.789474H8.68421V0H9.47368V0.789474H10.2632V1.57895H9.47368V2.36842H8.68421V3.15789H9.47368V3.94737H10.2632V4.73684H12.6316V6.31579H11.0526V7.89474H12.6316V9.47368H11.0526V11.0526H12.6316V12.6316H10.2632V13.4211H9.47368V14.2105H8.68421V15H3.94737V14.2105H3.15789V13.4211H2.36842V12.6316H0V11.0526H1.57895V9.47368H0V7.89474H1.57895V6.31579H0V4.73684ZM7.89474 13.4211V12.6316H8.68421V11.8421H9.47368V5.52632H8.68421V4.73684H7.89474V3.94737H4.73684V4.73684H3.94737V5.52632H3.15789V11.8421H3.94737V12.6316H4.73684V13.4211H7.89474ZM4.73684 9.47368H7.89474V11.0526H4.73684V9.47368ZM4.73684 6.31579H7.89474V7.89474H4.73684V6.31579Z" fill="#01162B"/>
</svg>
