<svg width="27" height="20" viewBox="0 0 27 20" fill="none" xmlns="http://www.w3.org/2000/svg">
<path d="M8.24561 0.00107823C9.0185 0.00136298 9.78373 0.154181 10.4974 0.450774C11.2112 0.747366 11.8593 1.1819 12.4048 1.72947C12.9502 2.27704 13.3823 2.92687 13.6761 3.64173C13.9699 4.35658 14.1198 5.1224 14.1171 5.89528C14.1127 9.03157 11.6239 11.7844 8.22948 11.7829C4.81601 11.7829 2.32795 9.00297 2.34481 5.86522C2.36314 2.46274 5.18265 -0.059785 8.24561 0.00107823ZM8.21481 9.36302C10.1514 9.36962 11.7346 7.82677 11.72 5.89162C11.7031 3.89779 10.1412 2.41434 8.25368 2.40041C6.43731 2.38648 4.75294 3.79807 4.75367 5.87988C4.75148 8.15895 6.6595 9.41728 8.21481 9.36302Z" fill="#01162B"/>
<path d="M8.08361 12.8799C10.3201 12.9319 12.2795 13.3697 14.0064 14.5753C15.2435 15.4391 16.133 16.5551 16.3962 18.0885C16.4505 18.4023 16.5018 18.7198 16.427 19.0417C16.3683 19.3075 16.2222 19.5458 16.012 19.7186C15.8018 19.8915 15.5397 19.9888 15.2677 19.995C14.9905 19.9959 14.7217 19.9006 14.5069 19.7255C14.2922 19.5503 14.1448 19.3061 14.09 19.0344C14.0453 18.8144 14.0482 18.5776 13.9998 18.3554C13.8414 17.636 13.3816 17.1176 12.8207 16.6842C11.8535 15.937 10.7315 15.5564 9.53699 15.3973C7.97068 15.189 6.4337 15.3137 4.95978 15.9274C4.25069 16.2208 3.60613 16.6175 3.08915 17.196C2.69391 17.636 2.43432 18.1354 2.41306 18.7484C2.39473 19.2984 2.14321 19.7164 1.61084 19.9173C1.1452 20.0933 0.72502 19.9818 0.370106 19.646C0.045991 19.338 -0.0295369 18.9427 0.00932761 18.5108C0.155986 16.8243 1.04767 15.5879 2.37493 14.631C3.70219 13.674 5.21423 13.1739 6.82968 12.9833C7.30045 12.929 7.77489 12.9048 8.08361 12.8799Z" fill="#01162B"/>
<path d="M18.999 9.11251C19.2583 9.37177 19.5227 9.62584 19.7742 9.89288C19.907 10.0339 20.0029 10.023 20.1346 9.88821C20.6085 9.40392 21.0897 8.92584 21.5724 8.45036C22.077 7.95103 22.7847 7.93185 23.2638 8.40163C23.7684 8.89681 23.7725 9.62273 23.2659 10.1397C22.8034 10.6105 22.3398 11.0803 21.8659 11.5397C21.6964 11.703 21.6798 11.8109 21.8587 11.9815C22.3362 12.4372 22.7977 12.9091 23.2581 13.3747C23.7492 13.8657 23.7616 14.6041 23.3032 15.0739C23.1916 15.1899 23.0578 15.2822 22.9098 15.3455C22.7618 15.4088 22.6026 15.4418 22.4416 15.4424C22.2806 15.443 22.1212 15.4113 21.9727 15.3492C21.8242 15.287 21.6897 15.1957 21.5771 15.0806C21.098 14.616 20.6261 14.1442 20.1616 13.6651C20.0019 13.5002 19.8971 13.5043 19.7385 13.6682C19.2666 14.1546 18.789 14.6363 18.3006 15.106C18.0945 15.3099 17.8213 15.432 17.5319 15.4497C17.2426 15.4673 16.9566 15.3793 16.7272 15.202C16.4978 15.0247 16.3406 14.7702 16.2848 14.4857C16.2289 14.2012 16.2782 13.9061 16.4236 13.6552C16.4907 13.5459 16.5729 13.4466 16.6678 13.3602C17.121 12.907 17.5674 12.446 18.031 12.0032C18.2099 11.8326 18.2275 11.7206 18.0393 11.5407C17.556 11.0813 17.0868 10.6058 16.6237 10.1252C16.4335 9.93653 16.3117 9.68973 16.2778 9.42397C16.2438 9.15821 16.2997 8.88873 16.4364 8.65833C16.5731 8.42793 16.7829 8.24983 17.0325 8.15231C17.282 8.05479 17.557 8.04344 17.8137 8.12007C17.9907 8.17015 18.1514 8.2658 18.2799 8.39748C18.5189 8.63651 18.7579 8.87555 18.997 9.11458L18.999 9.11251Z" fill="#01162B"/>
</svg>
