<svg width="20" height="26" viewBox="0 0 20 26" fill="none" xmlns="http://www.w3.org/2000/svg">
<path d="M0.147531 12.9888C0.147531 9.77811 0.145878 6.5674 0.148632 3.35669C0.149183 2.14321 0.948828 1.17066 2.13453 0.937405C2.28598 0.907768 2.44458 0.904475 2.59989 0.904475C6.37232 0.902279 10.1447 0.904475 13.9172 0.898438C14.2157 0.898438 14.4409 0.995033 14.6491 1.20359C16.0336 2.59216 17.422 3.97633 18.8158 5.35611C19.0394 5.57784 19.1358 5.81933 19.1353 6.13656C19.1286 11.6156 19.1314 17.0947 19.1297 22.5738C19.1297 24.0611 18.0955 25.0891 16.6019 25.0896C11.9577 25.0907 7.3135 25.0721 2.66928 25.1012C1.29468 25.1094 0.119444 23.9711 0.135415 22.5661C0.172313 19.374 0.14698 16.1814 0.14698 12.9894L0.147531 12.9888ZM9.62652 23.734C11.9302 23.734 14.2338 23.7356 16.5381 23.7329C17.3261 23.7318 17.7689 23.29 17.7695 22.503C17.7717 17.3164 17.7695 12.1304 17.7744 6.9439C17.7744 6.71998 17.7111 6.64094 17.4792 6.64424C16.6256 6.65576 15.772 6.65247 14.9184 6.64753C14.0427 6.64259 13.3709 5.97026 13.3659 5.09651C13.3615 4.28258 13.3648 3.4681 13.3643 2.65417C13.3643 2.39073 13.2365 2.25883 12.981 2.25846C9.59403 2.25846 6.2071 2.25846 2.82073 2.25846C1.92195 2.25846 1.50781 2.67284 1.50781 3.57238C1.50781 9.8566 1.50781 16.1403 1.50781 22.4245C1.50781 23.3207 1.92415 23.734 2.82513 23.734C5.09244 23.7346 7.35921 23.734 9.62652 23.734ZM16.7049 5.29135C16.0397 4.6267 15.3909 3.97798 14.7289 3.31717C14.7289 3.71508 14.5235 4.94887 14.8176 5.22439C15.1073 5.49497 16.3112 5.29135 16.7044 5.29135H16.7049Z" fill="#01162B"/>
<path d="M8.07523 18.0552C9.60238 19.2095 12.0316 18.0278 12.8566 16.5893C13.0796 16.2002 13.225 15.7759 13.2972 15.3336C13.3638 14.9252 13.2889 14.3841 13.7196 14.153C14.9466 13.4944 14.7026 15.5734 14.5578 16.1014C14.0092 18.1025 12.1946 19.6096 10.1294 19.8082C9.16125 19.9015 8.19088 19.7073 7.32295 19.2759C7.23318 19.2314 6.96333 19.0163 6.8631 19.0591C6.75075 19.1074 6.75626 19.4356 6.66264 19.553C6.41151 19.867 5.89879 19.918 5.61572 19.6107C5.24563 19.2089 5.42957 18.3247 5.43288 17.8214C5.43673 17.2347 5.47363 16.8121 6.11852 16.7117C6.60206 16.6365 7.76628 16.5569 8.19914 16.7929C8.72123 17.0778 8.61329 17.7133 8.1639 18.0031C8.14187 18.0174 8.11819 18.0306 8.07523 18.0558V18.0552Z" fill="#01162B"/>
<path d="M11.1714 11.4258C9.745 10.3254 7.38462 11.4363 6.53761 12.7238C6.29474 13.0927 6.11961 13.5037 6.02324 13.9346C5.93788 14.3171 6.01333 14.8676 5.75228 15.1821C5.50611 15.4785 5.02093 15.513 4.74447 15.2309C4.41569 14.8956 4.55832 14.2452 4.62771 13.832C4.96255 11.8331 6.62187 10.1866 8.60171 9.77164C9.61944 9.55869 10.6807 9.68437 11.6345 10.0911C11.8019 10.1624 12.1726 10.4566 12.3284 10.4352C12.5245 10.4083 12.3929 10.3776 12.5003 10.2288C12.7503 9.88305 13.0207 9.4363 13.5582 9.80347C14.0241 10.1218 13.8495 11.0384 13.8451 11.5137C13.8407 12.0455 13.9184 12.596 13.3109 12.7721C12.8296 12.9115 11.8421 12.8819 11.3443 12.7886C10.7528 12.6777 10.4675 11.9445 11.0161 11.5559C11.0662 11.5202 11.1394 11.5142 11.1714 11.4258Z" fill="#01162B"/>
</svg>
