<svg width="39" height="28" viewBox="0 0 39 28" fill="none" xmlns="http://www.w3.org/2000/svg">
<g id="Group 506">
<path id="Vector" d="M21 27H4.63636C2.63636 27 1 25.3636 1 23.3636V10.6364C1 8.63636 2.63636 7 4.63636 7H21C23 7 24.6364 8.63636 24.6364 10.6364V23.3636C24.6364 25.3636 23 27 21 27Z" stroke="#01162B" stroke-width="2" stroke-miterlimit="10" stroke-linecap="round" stroke-linejoin="round"/>
<path id="Vector_2" d="M10.9995 12.4551H5.54492V17.9096H10.9995V12.4551Z" stroke="#01162B" stroke-width="2" stroke-miterlimit="10" stroke-linecap="round" stroke-linejoin="round"/>
<path id="Vector_3" d="M14.6367 17.9092H20.0913" stroke="#01162B" stroke-width="2" stroke-miterlimit="10" stroke-linecap="round" stroke-linejoin="round"/>
<path id="Vector_4" d="M5.54492 21.5459H20.0904" stroke="#01162B" stroke-width="2" stroke-miterlimit="10" stroke-linecap="round" stroke-linejoin="round"/>
<path id="Vector_5" d="M30.7656 4.07149C31.0249 4.33075 31.2893 4.58482 31.5408 4.85186C31.6736 4.9929 31.7695 4.98201 31.9012 4.84719C32.3751 4.3629 32.8563 3.88483 33.339 3.40935C33.8436 2.91002 34.5513 2.89083 35.0304 3.36061C35.535 3.85579 35.5391 4.58171 35.0325 5.09867C34.57 5.56949 34.1064 6.03926 33.6325 6.49867C33.463 6.662 33.4464 6.76985 33.6253 6.94044C34.1028 7.39622 34.5643 7.86807 35.0247 8.33369C35.5158 8.82473 35.5282 9.56309 35.0698 10.0329C34.9582 10.1488 34.8244 10.2412 34.6764 10.3045C34.5284 10.3678 34.3692 10.4007 34.2082 10.4014C34.0472 10.402 33.8878 10.3703 33.7393 10.3082C33.5908 10.246 33.4563 10.1547 33.3437 10.0396C32.8646 9.57502 32.3928 9.10317 31.9282 8.62406C31.7685 8.45917 31.6637 8.46332 31.5051 8.62717C31.0332 9.11354 30.5556 9.59524 30.0672 10.065C29.8611 10.2689 29.5879 10.391 29.2985 10.4086C29.0092 10.4263 28.7232 10.3383 28.4938 10.161C28.2644 9.9837 28.1072 9.72915 28.0514 9.44466C27.9955 9.16017 28.0448 8.86508 28.1902 8.61421C28.2573 8.50489 28.3395 8.40556 28.4344 8.31917C28.8876 7.86599 29.334 7.40503 29.7976 6.96222C29.9765 6.79163 29.9941 6.67963 29.8059 6.4997C29.3226 6.0403 28.8534 5.56482 28.3903 5.08415C28.2001 4.89551 28.0783 4.64871 28.0444 4.38295C28.0104 4.11719 28.0663 3.84771 28.203 3.61732C28.3397 3.38692 28.5495 3.20882 28.7991 3.11129C29.0486 3.01377 29.3236 3.00242 29.5803 3.07905C29.7573 3.12913 29.918 3.22479 30.0465 3.35646C30.2855 3.5955 30.5245 3.83453 30.7636 4.07357L30.7656 4.07149Z" fill="#01162B"/>
</g>
</svg>
