
  <svg
    width="28"
    height="25"
    viewBox="0 0 28 25"
    fill="none"
    xmlns="http://www.w3.org/2000/svg"
  >
    <g id="Search" opacity="0.5">
      <path
        id="Union"
        fill-rule="evenodd"
        clip-rule="evenodd"
        d="M18.6882 13.5589C20.046 9.98445 18.6389 5.89083 15.1813 3.94315C11.3153 1.7655 6.34993 3.09513 4.0907 6.91297C1.83147 10.7308 3.13395 15.5911 6.99987 17.7688C10.5331 19.759 14.9848 18.8197 17.4495 15.7286L22.2807 18.4534C22.8818 18.7923 23.6536 18.5856 24.0047 17.9915C24.3558 17.3975 24.1532 16.6411 23.5522 16.3021L18.6882 13.5589ZM13.9117 6.0885C16.5779 7.59033 17.4761 10.9423 15.9181 13.5753C14.36 16.2083 10.9355 17.1252 8.26939 15.6234C5.60324 14.1216 4.70497 10.7696 6.26306 8.13665C7.82115 5.50366 11.2456 4.58667 13.9117 6.0885Z"
        fill="#01162B"
      />
    </g>
  </svg>

