<svg width="18" height="18" viewBox="0 0 18 18" fill="none" xmlns="http://www.w3.org/2000/svg">
<path d="M0 16.9142C0.102994 14.6978 0.922868 12.7944 2.49531 11.222C3.24125 10.4761 4.10141 9.8948 5.07169 9.48028C5.2272 9.41349 5.21905 9.37677 5.09311 9.27633C3.95252 8.37131 3.26981 7.19554 3.11328 5.74751C2.81857 3.03091 4.66329 0.609532 7.27485 0.0981304C10.1602 -0.466807 12.8778 1.47121 13.3653 4.27296C13.7064 6.23189 13.0588 7.86501 11.5685 9.16977C11.3661 9.3472 11.361 9.34006 11.6113 9.44051C12.0075 9.59959 12.3929 9.77906 12.758 10.0014C13.2021 10.2721 13.3398 10.7692 13.0869 11.1833C12.8381 11.5906 12.3425 11.7038 11.9035 11.4392C10.6966 10.7116 9.38572 10.3547 7.98561 10.4715C5.28176 10.6973 3.34731 12.0663 2.21131 14.5341C1.83146 15.3586 1.68003 16.2407 1.6683 17.1477C1.66218 17.6071 1.34963 17.9447 0.897884 17.9956C0.51497 18.0385 0.125938 17.7606 0.0265133 17.3726C-0.0122369 17.2222 0.0132567 17.0687 0.000509872 16.9142H0ZM8.25737 8.69355C10.2296 8.69661 11.7724 7.16036 11.7734 5.19277C11.775 2.10397 7.89791 0.509087 5.73606 2.73876C3.61448 4.92712 5.22924 8.68896 8.25686 8.69355H8.25737Z" fill="#34C38F"/>
<path d="M17.3591 12.2348C17.3667 12.4147 17.3096 12.5738 17.2117 12.7202C16.1364 14.3329 15.0636 15.9476 13.9842 17.5578C13.6824 18.008 13.2276 18.1029 12.7738 17.8077C11.9595 17.2764 11.1504 16.7369 10.3448 16.1919C9.95471 15.9278 9.86905 15.4174 10.1296 15.0294C10.3733 14.6658 10.8776 14.5526 11.2615 14.7984C11.802 15.1446 12.3338 15.5041 12.863 15.8676C12.9946 15.9578 13.0557 15.9436 13.1434 15.8105C14.024 14.4802 14.9107 13.1541 15.7973 11.8279C16.063 11.4307 16.476 11.2966 16.8701 11.4807C17.1888 11.629 17.3468 11.886 17.3586 12.2343L17.3591 12.2348Z" fill="#34C38F"/>
</svg>
