<svg width="9" height="7" viewBox="0 0 9 7" fill="none" xmlns="http://www.w3.org/2000/svg">
<path id="Vector" d="M8.73917 1.3535C8.68868 1.54231 8.5659 1.67775 8.43662 1.81199C7.02844 3.27587 5.62161 4.74095 4.21592 6.20743C4.06082 6.36935 3.88296 6.45479 3.6613 6.43109C3.50753 6.41456 3.38016 6.34087 3.27306 6.22953C2.5509 5.47907 1.82683 4.7304 1.10964 3.97455C0.788917 3.63657 0.873641 3.11435 1.26953 2.91179C1.51681 2.78532 1.79566 2.84109 2.01024 3.06376C2.46618 3.53698 2.92078 4.0116 3.37595 4.48562C3.47846 4.59237 3.5825 4.69773 3.68291 4.80668C3.71982 4.84671 3.74545 4.84671 3.78236 4.80688C3.8885 4.69255 3.99771 4.58142 4.10557 4.46909C5.27679 3.24938 6.44838 2.03008 7.61883 0.809575C7.77355 0.648249 7.94778 0.547868 8.17499 0.567984C8.4217 0.589893 8.64087 0.769343 8.7145 1.01651C8.7212 1.03922 8.73095 1.06092 8.73917 1.08323C8.73917 1.17326 8.73917 1.26328 8.73917 1.3535Z" fill="white"/>
</svg>
