<svg width="25" height="20" viewBox="0 0 25 20" fill="none" xmlns="http://www.w3.org/2000/svg">
<g id="Group 510">
<path id="Vector" fill-rule="evenodd" clip-rule="evenodd" d="M12.4991 1.93548C10.906 1.93548 9.61448 3.23531 9.61448 4.8387C9.61448 6.44211 10.906 7.74196 12.4991 7.74196C14.0922 7.74196 15.3837 6.44211 15.3837 4.8387C15.3837 3.23531 14.0922 1.93548 12.4991 1.93548ZM7.69141 4.8387C7.69141 2.16637 9.84388 0 12.4991 0C15.1543 0 17.3068 2.16637 17.3068 4.8387C17.3068 7.51109 15.1543 9.67746 12.4991 9.67746C9.84388 9.67746 7.69141 7.51109 7.69141 4.8387Z" fill="#01162B"/>
<path id="Vector_2" fill-rule="evenodd" clip-rule="evenodd" d="M10.6038 13.5483C8.64217 13.5483 7.05199 15.1488 7.05199 17.123C7.05199 17.1615 7.05521 17.1925 7.05953 17.2158C7.0601 17.2189 7.06068 17.2218 7.06125 17.2244C7.57479 17.5105 9.02801 18.0644 12.5007 18.0644C15.9733 18.0644 17.4266 17.5105 17.9402 17.2244C17.9407 17.2218 17.9413 17.2189 17.9418 17.2158C17.9462 17.1925 17.9494 17.1615 17.9494 17.123C17.9494 15.1488 16.3592 13.5483 14.3976 13.5483H10.6038ZM5.12891 17.123C5.12891 14.0798 7.5801 11.6128 10.6038 11.6128H14.3976C17.4213 11.6128 19.8724 14.0798 19.8724 17.123C19.8724 17.666 19.6897 18.4354 18.9632 18.8652C18.0806 19.3873 16.2588 19.9999 12.5007 19.9999C8.74255 19.9999 6.92089 19.3873 6.03818 18.8652C5.31173 18.4354 5.12891 17.666 5.12891 17.123Z" fill="#01162B"/>
<path id="Vector_3" fill-rule="evenodd" clip-rule="evenodd" d="M18.3031 2.00552C18.4417 1.48958 18.9696 1.18435 19.4822 1.3238C21.2369 1.8011 22.4364 3.53543 22.4364 5.48382C22.4364 7.54304 21.0323 9.42778 19.0254 9.67041C18.4982 9.73416 18.0194 9.35566 17.9562 8.82504C17.8928 8.29441 18.2689 7.81254 18.7962 7.74879C19.6739 7.64266 20.5134 6.73759 20.5134 5.48382C20.5134 4.29359 19.7898 3.41241 18.9804 3.19223C18.4678 3.0528 18.1646 2.52149 18.3031 2.00552Z" fill="#01162B"/>
<path id="Vector_4" fill-rule="evenodd" clip-rule="evenodd" d="M20.5297 12.3954C20.6313 11.8709 21.1363 11.5285 21.6574 11.6309C23.5983 12.0118 24.999 13.7231 24.999 15.7133V16.2364C24.999 16.7331 24.851 17.4836 24.1619 17.9269C23.7312 18.204 23.0784 18.4895 22.0914 18.6905C21.5709 18.7965 21.0637 18.4577 20.9583 17.9339C20.853 17.41 21.1895 16.8994 21.71 16.7935C22.442 16.6444 22.8557 16.457 23.0688 16.3315L23.069 16.3298C23.073 16.3064 23.0759 16.2753 23.0759 16.2364V15.7133C23.0759 14.6491 22.327 13.7343 21.2893 13.5305C20.7682 13.4283 20.428 12.92 20.5297 12.3954Z" fill="#01162B"/>
<path id="Vector_5" fill-rule="evenodd" clip-rule="evenodd" d="M6.69585 8.96202C6.5573 9.47789 6.02941 9.78314 5.51676 9.64364C3.76205 9.16639 2.5625 7.43206 2.5625 5.48367C2.5625 3.42446 3.96665 1.53966 5.97346 1.29704C6.50072 1.23329 6.97948 1.61181 7.04282 2.14245C7.10614 2.67312 6.73007 3.15496 6.20282 3.2187C5.32502 3.32483 4.48557 4.2299 4.48557 5.48367C4.48557 6.6739 5.20911 7.55514 6.01849 7.77527C6.53114 7.91464 6.83442 8.44602 6.69585 8.96202Z" fill="#01162B"/>
<path id="Vector_6" fill-rule="evenodd" clip-rule="evenodd" d="M4.46939 12.3954C4.36774 11.8709 3.86281 11.5285 3.34158 11.6309C1.40075 12.0118 0 13.7231 0 15.7133V16.2364C0 16.7331 0.147975 17.4836 0.837098 17.9269C1.26785 18.204 1.92066 18.4895 2.90761 18.6905C3.42811 18.7965 3.93542 18.4577 4.04073 17.9339C4.14603 17.41 3.80945 16.8994 3.28896 16.7935C2.55694 16.6444 2.1434 16.457 1.93028 16.3315L1.93 16.3298C1.92602 16.3064 1.92307 16.2753 1.92307 16.2364V15.7133C1.92307 14.6491 2.67199 13.7343 3.70969 13.5305C4.23092 13.4283 4.57104 12.92 4.46939 12.3954Z" fill="#01162B"/>
</g>
</svg>
