<svg width="18" height="18" viewBox="0 0 18 18" fill="none" xmlns="http://www.w3.org/2000/svg">
<path d="M11.3688 9.34397C11.5515 9.42184 11.7317 9.49564 11.9093 9.57453C12.2055 9.70635 12.4961 9.84937 12.7689 10.0255C13.1776 10.2891 13.2993 10.7762 13.0606 11.1747C12.8193 11.5773 12.3175 11.7051 11.8976 11.4521C11.1041 10.9732 10.2572 10.6479 9.33799 10.5248C7.42326 10.2682 5.68972 10.7177 4.17861 11.9259C2.7591 13.0609 1.94527 14.5537 1.70911 16.358C1.67602 16.6094 1.65974 16.8634 1.65872 17.1189C1.65668 17.6182 1.28157 18.0055 0.821979 17.9999C0.342534 17.9933 0 17.6243 0 17.1133C0 13.8351 2.02975 10.7563 5.0301 9.48444C5.23115 9.39944 5.22911 9.40148 5.05352 9.25795C3.85897 8.28328 3.18714 7.03581 3.08382 5.48754C2.90365 2.78697 4.91457 0.396358 7.54541 0.0461903C10.3554 -0.327899 12.9542 1.60973 13.3593 4.42787C13.6326 6.32835 12.9812 7.90054 11.551 9.16176C11.4904 9.21469 11.413 9.25083 11.3688 9.34448V9.34397ZM8.23964 8.68995C10.2078 8.69147 11.7454 7.15338 11.7449 5.18419C11.7439 2.09732 7.87166 0.503241 5.71772 2.73556C3.60297 4.92768 5.21588 8.6874 8.23964 8.68944V8.68995Z" fill="#EE7E8B"/>
<path d="M11.575 17.1338C11.575 16.8635 11.7058 16.661 11.8885 16.4808C12.3079 16.065 12.7222 15.6435 13.1461 15.2328C13.2571 15.1254 13.2474 15.0618 13.1426 14.959C12.7023 14.5279 12.2641 14.0942 11.8366 13.6509C11.4085 13.2071 11.5353 12.5093 12.0824 12.2864C12.4259 12.1464 12.742 12.209 13.0102 12.4742C13.4525 12.9119 13.8974 13.3476 14.3341 13.7909C14.4379 13.8968 14.4954 13.8815 14.5916 13.7822C15.0201 13.3394 15.4466 12.8946 15.893 12.4701C16.3765 12.0105 17.1313 12.205 17.2952 12.8218C17.3802 13.1404 17.3013 13.425 17.0646 13.6616C16.6336 14.0927 16.206 14.5279 15.7698 14.9539C15.6625 15.0587 15.6604 15.1213 15.7683 15.2272C16.1999 15.6486 16.6285 16.0736 17.0484 16.5072C17.4698 16.9424 17.3904 17.5766 16.8911 17.857C16.5562 18.0448 16.1709 17.9909 15.8783 17.7028C15.4619 17.2926 15.0517 16.8768 14.6389 16.463C14.5154 16.3391 14.3938 16.3369 14.274 16.4564C13.8516 16.8783 13.4352 17.3068 13.0062 17.7216C12.5293 18.1817 11.7811 17.9843 11.6101 17.3598C11.5902 17.287 11.5867 17.2101 11.5755 17.1348L11.575 17.1338Z" fill="#EE7E8B"/>
</svg>
