<svg width="22" height="20" viewBox="0 0 22 20" fill="none" xmlns="http://www.w3.org/2000/svg">
<path fill-rule="evenodd" clip-rule="evenodd" d="M18.1818 1.81818H3.63636C2.63221 1.81818 1.81818 2.63221 1.81818 3.63636V12.7273C1.81818 13.7314 2.63221 14.5455 3.63636 14.5455H18.1818C19.186 14.5455 20 13.7314 20 12.7273V3.63636C20 2.63221 19.186 1.81818 18.1818 1.81818ZM3.63636 0C1.62806 0 0 1.62806 0 3.63636V12.7273C0 14.7356 1.62806 16.3636 3.63636 16.3636H18.1818C20.1901 16.3636 21.8182 14.7356 21.8182 12.7273V3.63636C21.8182 1.62806 20.1901 0 18.1818 0H3.63636Z" fill="#01162B"/>
<path fill-rule="evenodd" clip-rule="evenodd" d="M4.54545 19.0909C4.54545 18.5888 4.95247 18.1818 5.45455 18.1818H16.3636C16.8657 18.1818 17.2727 18.5888 17.2727 19.0909C17.2727 19.593 16.8657 20 16.3636 20H5.45455C4.95247 20 4.54545 19.593 4.54545 19.0909Z" fill="#01162B"/>
<path fill-rule="evenodd" clip-rule="evenodd" d="M10 7.06017V9.30346L11.8694 8.18182L10 7.06017ZM8.18182 6.0968C8.18182 5.10751 9.26106 4.49646 10.1094 5.00544L13.5844 7.09046C14.4083 7.5848 14.4083 8.77884 13.5844 9.27317L10.1094 11.3582C9.26105 11.8672 8.18182 11.2561 8.18182 10.2668V6.0968Z" fill="#01162B"/>
</svg>
