<svg width="12" height="15" viewBox="0 0 12 15" fill="none" xmlns="http://www.w3.org/2000/svg">
<path fill-rule="evenodd" clip-rule="evenodd" d="M4.10621 10.1611C2.63496 10.1611 1.44232 11.3615 1.44232 12.8422C1.44232 12.871 1.44474 12.8943 1.44797 12.9117C1.4484 12.9141 1.44884 12.9162 1.44927 12.9182C1.83442 13.1328 2.92434 13.5482 5.52887 13.5482C8.13334 13.5482 9.22328 13.1328 9.6085 12.9182C9.60888 12.9162 9.60935 12.9141 9.60972 12.9117C9.613 12.8943 9.61544 12.871 9.61544 12.8422C9.61544 11.3615 8.42275 10.1611 6.95153 10.1611H4.10621ZM0 12.8422C0 10.5597 1.83841 8.70947 4.10621 8.70947H6.95153C9.21934 8.70947 11.0577 10.5597 11.0577 12.8422C11.0577 13.2494 10.9206 13.8265 10.3758 14.1488C9.71378 14.5404 8.34747 14.9998 5.52887 14.9998C2.71024 14.9998 1.34399 14.5404 0.681958 14.1488C0.137119 13.8265 0 13.2494 0 12.8422Z" fill="#FFBD00"/>
<path d="M3.70803 2.5157C3.97048 2.5157 4.23294 2.51045 4.4954 2.51832C4.63398 2.52251 4.67702 2.46851 4.67545 2.33376C4.6702 1.8493 4.67177 1.36431 4.67545 0.879841C4.67807 0.372307 5.02662 0.00476405 5.50692 4.52368e-05C6.01294 -0.00467357 6.38248 0.360247 6.38772 0.877743C6.39192 1.34962 6.39507 1.82151 6.38772 2.29339C6.38458 2.46169 6.43077 2.52461 6.60767 2.52041C7.08009 2.5094 7.55251 2.51465 8.02127 2.51727C8.51836 2.51727 8.8984 2.88429 8.90418 3.35355C8.90636 3.46863 8.8854 3.58297 8.84252 3.68981C8.79964 3.79664 8.73572 3.89379 8.65456 3.9755C8.5734 4.0572 8.47664 4.1218 8.37002 4.16546C8.2634 4.20912 8.14909 4.23096 8.03386 4.22967C7.55619 4.23701 7.07852 4.23701 6.60084 4.22967C6.43654 4.22705 6.38563 4.2821 6.38825 4.44516C6.3956 4.92963 6.3977 5.41462 6.38825 5.89908C6.3871 6.10638 6.31066 6.30621 6.17311 6.46144C6.03557 6.61668 5.84629 6.71676 5.64043 6.7431C5.43457 6.76943 5.22615 6.72023 5.05387 6.60463C4.8816 6.48903 4.75721 6.31489 4.70379 6.11457C4.68245 6.02535 4.67378 5.93357 4.67807 5.84193C4.67807 5.38368 4.67072 4.92491 4.68122 4.46666C4.68542 4.28997 4.63765 4.22443 4.45131 4.22862C3.97416 4.24068 3.49596 4.23754 3.01828 4.22862C2.8265 4.22944 2.63994 4.16622 2.48824 4.04901C2.33655 3.93181 2.22841 3.76733 2.181 3.58171C2.13359 3.39609 2.14963 3.19997 2.22658 3.0245C2.30353 2.84903 2.43697 2.70427 2.6057 2.61322C2.72063 2.54906 2.85041 2.51615 2.98206 2.51779C3.22405 2.51779 3.46604 2.51779 3.70803 2.51779V2.5157Z" fill="#FFBD00"/>
</svg>
