<svg width="20" height="20" viewBox="0 0 20 20" fill="none" xmlns="http://www.w3.org/2000/svg">
<g id="Story">
<path id="Union" d="M0.75 2C0.75 1.39686 1.3388 0.75 2.27273 0.75H6.81818C7.7521 0.75 8.34091 1.39686 8.34091 2V18.182L6.93303 16.7661C6.60456 16.4357 6.15793 16.25 5.69207 16.25H2.27273C1.3388 16.25 0.75 15.6031 0.75 15V2Z" stroke="#01162B" stroke-width="1.5"/>
<path id="Union_2" d="M19.25 2C19.25 1.39686 18.6612 0.75 17.7273 0.75H13.1818C12.2479 0.75 11.6591 1.39686 11.6591 2V18.182L13.067 16.7661C13.3954 16.4357 13.8421 16.25 14.3079 16.25H17.7273C18.6612 16.25 19.25 15.6031 19.25 15V2Z" stroke="#01162B" stroke-width="1.5"/>
</g>
</svg>
