<svg width="17" height="16" viewBox="0 0 17 16" fill="none" xmlns="http://www.w3.org/2000/svg">
<mask id="path-1-outside-1_408_2158" maskUnits="userSpaceOnUse" x="-0.40625" y="-0.589844" width="18" height="17" fill="black">
<rect fill="white" x="-0.40625" y="-0.589844" width="18" height="17"/>
<path d="M8.58692 0.410156C10.5592 0.410156 12.5314 0.410156 14.5034 0.410156C15.7141 0.410406 16.5928 1.28521 16.5931 2.49272C16.5938 5.37122 16.5941 8.24972 16.5931 11.1282C16.5926 12.3237 15.7131 13.2063 14.5157 13.209C13.0532 13.2123 11.5908 13.2113 10.1281 13.2075C9.98718 13.2073 9.87503 13.2452 9.76263 13.3298C8.83895 14.0272 7.91177 14.7198 6.98509 15.4131C6.92314 15.4596 6.8612 15.508 6.79251 15.5427C6.54198 15.6697 6.26073 15.5354 6.20153 15.2604C6.1843 15.18 6.1798 15.0959 6.17955 15.0133C6.17755 14.5041 6.17855 13.9947 6.17855 13.4856C6.17855 13.3019 6.08913 13.21 5.91029 13.2098C4.8245 13.2098 3.73846 13.2205 2.65292 13.206C1.81042 13.1948 1.18322 12.8055 0.797312 12.0502C0.651691 11.7647 0.59624 11.4529 0.59599 11.1345C0.594242 8.25047 0.591744 5.36648 0.59649 2.48249C0.598488 1.28796 1.49145 0.410655 2.68714 0.410406C4.65365 0.409907 6.62041 0.410406 8.58692 0.410406V0.410156ZM8.60441 1.25302C6.64364 1.25302 4.68263 1.25302 2.72186 1.25351C2.60596 1.25351 2.48957 1.24727 2.37442 1.27298C1.80267 1.40077 1.43725 1.86675 1.437 2.47949C1.436 5.34102 1.44674 8.2028 1.4295 11.0641C1.42501 11.8133 1.96303 12.3899 2.73235 12.3739C3.99473 12.3475 5.25812 12.3659 6.521 12.3674C6.85795 12.3677 7.01881 12.5309 7.02006 12.8683C7.02156 13.2946 7.02006 13.7207 7.02131 14.147C7.02131 14.1952 6.99858 14.2615 7.04229 14.2875C7.09999 14.3217 7.13995 14.2543 7.18092 14.2239C7.93075 13.664 8.68109 13.1047 9.42643 12.5389C9.58454 12.4188 9.74839 12.3639 9.94697 12.3647C11.4646 12.3692 12.9825 12.3532 14.5002 12.3732C15.2048 12.3824 15.7616 11.8365 15.7578 11.1275C15.7431 8.24947 15.7518 5.37122 15.7506 2.49297C15.7506 2.3829 15.7491 2.26984 15.7254 2.16301C15.605 1.61966 15.1421 1.25451 14.5701 1.25401C12.5816 1.25202 10.5929 1.25326 8.60441 1.25302Z"/>
</mask>
<path d="M8.58692 0.410156C10.5592 0.410156 12.5314 0.410156 14.5034 0.410156C15.7141 0.410406 16.5928 1.28521 16.5931 2.49272C16.5938 5.37122 16.5941 8.24972 16.5931 11.1282C16.5926 12.3237 15.7131 13.2063 14.5157 13.209C13.0532 13.2123 11.5908 13.2113 10.1281 13.2075C9.98718 13.2073 9.87503 13.2452 9.76263 13.3298C8.83895 14.0272 7.91177 14.7198 6.98509 15.4131C6.92314 15.4596 6.8612 15.508 6.79251 15.5427C6.54198 15.6697 6.26073 15.5354 6.20153 15.2604C6.1843 15.18 6.1798 15.0959 6.17955 15.0133C6.17755 14.5041 6.17855 13.9947 6.17855 13.4856C6.17855 13.3019 6.08913 13.21 5.91029 13.2098C4.8245 13.2098 3.73846 13.2205 2.65292 13.206C1.81042 13.1948 1.18322 12.8055 0.797312 12.0502C0.651691 11.7647 0.59624 11.4529 0.59599 11.1345C0.594242 8.25047 0.591744 5.36648 0.59649 2.48249C0.598488 1.28796 1.49145 0.410655 2.68714 0.410406C4.65365 0.409907 6.62041 0.410406 8.58692 0.410406V0.410156ZM8.60441 1.25302C6.64364 1.25302 4.68263 1.25302 2.72186 1.25351C2.60596 1.25351 2.48957 1.24727 2.37442 1.27298C1.80267 1.40077 1.43725 1.86675 1.437 2.47949C1.436 5.34102 1.44674 8.2028 1.4295 11.0641C1.42501 11.8133 1.96303 12.3899 2.73235 12.3739C3.99473 12.3475 5.25812 12.3659 6.521 12.3674C6.85795 12.3677 7.01881 12.5309 7.02006 12.8683C7.02156 13.2946 7.02006 13.7207 7.02131 14.147C7.02131 14.1952 6.99858 14.2615 7.04229 14.2875C7.09999 14.3217 7.13995 14.2543 7.18092 14.2239C7.93075 13.664 8.68109 13.1047 9.42643 12.5389C9.58454 12.4188 9.74839 12.3639 9.94697 12.3647C11.4646 12.3692 12.9825 12.3532 14.5002 12.3732C15.2048 12.3824 15.7616 11.8365 15.7578 11.1275C15.7431 8.24947 15.7518 5.37122 15.7506 2.49297C15.7506 2.3829 15.7491 2.26984 15.7254 2.16301C15.605 1.61966 15.1421 1.25451 14.5701 1.25401C12.5816 1.25202 10.5929 1.25326 8.60441 1.25302Z" fill="#6F6AF8"/>
<path d="M8.58692 0.410156C10.5592 0.410156 12.5314 0.410156 14.5034 0.410156C15.7141 0.410406 16.5928 1.28521 16.5931 2.49272C16.5938 5.37122 16.5941 8.24972 16.5931 11.1282C16.5926 12.3237 15.7131 13.2063 14.5157 13.209C13.0532 13.2123 11.5908 13.2113 10.1281 13.2075C9.98718 13.2073 9.87503 13.2452 9.76263 13.3298C8.83895 14.0272 7.91177 14.7198 6.98509 15.4131C6.92314 15.4596 6.8612 15.508 6.79251 15.5427C6.54198 15.6697 6.26073 15.5354 6.20153 15.2604C6.1843 15.18 6.1798 15.0959 6.17955 15.0133C6.17755 14.5041 6.17855 13.9947 6.17855 13.4856C6.17855 13.3019 6.08913 13.21 5.91029 13.2098C4.8245 13.2098 3.73846 13.2205 2.65292 13.206C1.81042 13.1948 1.18322 12.8055 0.797312 12.0502C0.651691 11.7647 0.59624 11.4529 0.59599 11.1345C0.594242 8.25047 0.591744 5.36648 0.59649 2.48249C0.598488 1.28796 1.49145 0.410655 2.68714 0.410406C4.65365 0.409907 6.62041 0.410406 8.58692 0.410406V0.410156ZM8.60441 1.25302C6.64364 1.25302 4.68263 1.25302 2.72186 1.25351C2.60596 1.25351 2.48957 1.24727 2.37442 1.27298C1.80267 1.40077 1.43725 1.86675 1.437 2.47949C1.436 5.34102 1.44674 8.2028 1.4295 11.0641C1.42501 11.8133 1.96303 12.3899 2.73235 12.3739C3.99473 12.3475 5.25812 12.3659 6.521 12.3674C6.85795 12.3677 7.01881 12.5309 7.02006 12.8683C7.02156 13.2946 7.02006 13.7207 7.02131 14.147C7.02131 14.1952 6.99858 14.2615 7.04229 14.2875C7.09999 14.3217 7.13995 14.2543 7.18092 14.2239C7.93075 13.664 8.68109 13.1047 9.42643 12.5389C9.58454 12.4188 9.74839 12.3639 9.94697 12.3647C11.4646 12.3692 12.9825 12.3532 14.5002 12.3732C15.2048 12.3824 15.7616 11.8365 15.7578 11.1275C15.7431 8.24947 15.7518 5.37122 15.7506 2.49297C15.7506 2.3829 15.7491 2.26984 15.7254 2.16301C15.605 1.61966 15.1421 1.25451 14.5701 1.25401C12.5816 1.25202 10.5929 1.25326 8.60441 1.25302Z" stroke="#6F6AF8" stroke-width="0.276014" mask="url(#path-1-outside-1_408_2158)"/>
<mask id="path-2-outside-2_408_2158" maskUnits="userSpaceOnUse" x="4.38916" y="2.59863" width="8" height="8" fill="black">
<rect fill="white" x="4.38916" y="2.59863" width="8" height="8"/>
<path d="M8.8259 5.193C9.09566 5.193 9.59197 5.29058 9.8395 5.19474C10.105 5.09191 10.0541 4.8271 10.0933 4.5548C10.127 4.32143 10.1138 3.9171 10.2866 3.73615C10.4849 3.52849 10.8274 3.57991 10.962 3.83349C11.0809 4.05762 10.955 4.46644 10.9213 4.69956C10.8658 5.08343 10.7719 5.17453 11.1713 5.191C11.4204 5.20148 11.7024 5.20897 11.7888 5.49699C11.8782 5.79525 11.6412 5.98444 11.3799 6.03136C11.1736 6.0683 10.8384 5.93477 10.7182 6.13544C10.5893 6.35083 10.6168 6.82954 10.5788 7.08063C10.5244 7.44178 10.4267 7.57581 10.8226 7.5838C11.0904 7.58929 11.5008 7.50268 11.7041 7.7348C12.0718 8.15511 11.5293 8.41618 11.1803 8.42915C10.9935 8.43614 10.5626 8.3393 10.414 8.46709C10.2389 8.61784 10.2759 9.22734 10.2374 9.44648C10.1959 9.68333 10.1495 9.96362 9.86223 10.0113C9.61245 10.0527 9.42886 9.87053 9.39065 9.63966C9.34744 9.37909 9.45309 9.05762 9.48831 8.79954C9.54801 8.36127 9.40488 8.42541 8.99225 8.42791C8.63282 8.43015 8.27339 8.43065 7.9137 8.42891C7.70164 8.42791 7.32472 8.33281 7.18435 8.52525C6.92158 8.8854 7.31348 9.90522 6.67105 10.0118C5.87076 10.1446 6.37581 8.94905 6.32611 8.62308C6.25792 8.17732 5.38019 8.66876 5.39268 7.99587C5.40517 7.33471 6.27365 7.7947 6.49271 7.44578C6.63234 7.22339 6.61635 6.62838 6.64508 6.36232C6.68929 5.95324 6.53967 6.0406 6.17874 6.03985C5.89874 6.0391 5.50608 6.07105 5.40817 5.72986C5.317 5.41163 5.56878 5.23268 5.84353 5.19524C6.07558 5.16354 6.59962 5.3128 6.78395 5.15805C6.94406 5.02352 6.90784 4.50039 6.94006 4.29523C6.98702 3.99672 7.02948 3.55495 7.44662 3.60212C7.75684 3.63731 7.81854 3.9161 7.8023 4.17268C7.79056 4.36037 7.56251 5.06346 7.71588 5.18401C7.88098 5.3138 8.60884 5.19324 8.82565 5.19324L8.8259 5.193ZM8.4797 7.5843C8.68902 7.5843 9.37541 7.69012 9.555 7.57931C9.76981 7.44678 9.73759 7.05917 9.77206 6.81507C9.79829 6.62863 9.96364 6.14717 9.77681 6.04184C9.58048 5.93128 8.93505 6.0371 8.7085 6.0371C8.47496 6.0371 7.8093 5.91805 7.59973 6.04634C7.42863 6.15116 7.44137 6.72097 7.41464 6.90193C7.37593 7.16474 7.21607 7.46824 7.4671 7.5848C7.68516 7.68588 8.23167 7.58405 8.4797 7.58405V7.5843Z"/>
</mask>
<path d="M8.8259 5.193C9.09566 5.193 9.59197 5.29058 9.8395 5.19474C10.105 5.09191 10.0541 4.8271 10.0933 4.5548C10.127 4.32143 10.1138 3.9171 10.2866 3.73615C10.4849 3.52849 10.8274 3.57991 10.962 3.83349C11.0809 4.05762 10.955 4.46644 10.9213 4.69956C10.8658 5.08343 10.7719 5.17453 11.1713 5.191C11.4204 5.20148 11.7024 5.20897 11.7888 5.49699C11.8782 5.79525 11.6412 5.98444 11.3799 6.03136C11.1736 6.0683 10.8384 5.93477 10.7182 6.13544C10.5893 6.35083 10.6168 6.82954 10.5788 7.08063C10.5244 7.44178 10.4267 7.57581 10.8226 7.5838C11.0904 7.58929 11.5008 7.50268 11.7041 7.7348C12.0718 8.15511 11.5293 8.41618 11.1803 8.42915C10.9935 8.43614 10.5626 8.3393 10.414 8.46709C10.2389 8.61784 10.2759 9.22734 10.2374 9.44648C10.1959 9.68333 10.1495 9.96362 9.86223 10.0113C9.61245 10.0527 9.42886 9.87053 9.39065 9.63966C9.34744 9.37909 9.45309 9.05762 9.48831 8.79954C9.54801 8.36127 9.40488 8.42541 8.99225 8.42791C8.63282 8.43015 8.27339 8.43065 7.9137 8.42891C7.70164 8.42791 7.32472 8.33281 7.18435 8.52525C6.92158 8.8854 7.31348 9.90522 6.67105 10.0118C5.87076 10.1446 6.37581 8.94905 6.32611 8.62308C6.25792 8.17732 5.38019 8.66876 5.39268 7.99587C5.40517 7.33471 6.27365 7.7947 6.49271 7.44578C6.63234 7.22339 6.61635 6.62838 6.64508 6.36232C6.68929 5.95324 6.53967 6.0406 6.17874 6.03985C5.89874 6.0391 5.50608 6.07105 5.40817 5.72986C5.317 5.41163 5.56878 5.23268 5.84353 5.19524C6.07558 5.16354 6.59962 5.3128 6.78395 5.15805C6.94406 5.02352 6.90784 4.50039 6.94006 4.29523C6.98702 3.99672 7.02948 3.55495 7.44662 3.60212C7.75684 3.63731 7.81854 3.9161 7.8023 4.17268C7.79056 4.36037 7.56251 5.06346 7.71588 5.18401C7.88098 5.3138 8.60884 5.19324 8.82565 5.19324L8.8259 5.193ZM8.4797 7.5843C8.68902 7.5843 9.37541 7.69012 9.555 7.57931C9.76981 7.44678 9.73759 7.05917 9.77206 6.81507C9.79829 6.62863 9.96364 6.14717 9.77681 6.04184C9.58048 5.93128 8.93505 6.0371 8.7085 6.0371C8.47496 6.0371 7.8093 5.91805 7.59973 6.04634C7.42863 6.15116 7.44137 6.72097 7.41464 6.90193C7.37593 7.16474 7.21607 7.46824 7.4671 7.5848C7.68516 7.68588 8.23167 7.58405 8.4797 7.58405V7.5843Z" fill="#6F6AF8"/>
<path d="M8.8259 5.193C9.09566 5.193 9.59197 5.29058 9.8395 5.19474C10.105 5.09191 10.0541 4.8271 10.0933 4.5548C10.127 4.32143 10.1138 3.9171 10.2866 3.73615C10.4849 3.52849 10.8274 3.57991 10.962 3.83349C11.0809 4.05762 10.955 4.46644 10.9213 4.69956C10.8658 5.08343 10.7719 5.17453 11.1713 5.191C11.4204 5.20148 11.7024 5.20897 11.7888 5.49699C11.8782 5.79525 11.6412 5.98444 11.3799 6.03136C11.1736 6.0683 10.8384 5.93477 10.7182 6.13544C10.5893 6.35083 10.6168 6.82954 10.5788 7.08063C10.5244 7.44178 10.4267 7.57581 10.8226 7.5838C11.0904 7.58929 11.5008 7.50268 11.7041 7.7348C12.0718 8.15511 11.5293 8.41618 11.1803 8.42915C10.9935 8.43614 10.5626 8.3393 10.414 8.46709C10.2389 8.61784 10.2759 9.22734 10.2374 9.44648C10.1959 9.68333 10.1495 9.96362 9.86223 10.0113C9.61245 10.0527 9.42886 9.87053 9.39065 9.63966C9.34744 9.37909 9.45309 9.05762 9.48831 8.79954C9.54801 8.36127 9.40488 8.42541 8.99225 8.42791C8.63282 8.43015 8.27339 8.43065 7.9137 8.42891C7.70164 8.42791 7.32472 8.33281 7.18435 8.52525C6.92158 8.8854 7.31348 9.90522 6.67105 10.0118C5.87076 10.1446 6.37581 8.94905 6.32611 8.62308C6.25792 8.17732 5.38019 8.66876 5.39268 7.99587C5.40517 7.33471 6.27365 7.7947 6.49271 7.44578C6.63234 7.22339 6.61635 6.62838 6.64508 6.36232C6.68929 5.95324 6.53967 6.0406 6.17874 6.03985C5.89874 6.0391 5.50608 6.07105 5.40817 5.72986C5.317 5.41163 5.56878 5.23268 5.84353 5.19524C6.07558 5.16354 6.59962 5.3128 6.78395 5.15805C6.94406 5.02352 6.90784 4.50039 6.94006 4.29523C6.98702 3.99672 7.02948 3.55495 7.44662 3.60212C7.75684 3.63731 7.81854 3.9161 7.8023 4.17268C7.79056 4.36037 7.56251 5.06346 7.71588 5.18401C7.88098 5.3138 8.60884 5.19324 8.82565 5.19324L8.8259 5.193ZM8.4797 7.5843C8.68902 7.5843 9.37541 7.69012 9.555 7.57931C9.76981 7.44678 9.73759 7.05917 9.77206 6.81507C9.79829 6.62863 9.96364 6.14717 9.77681 6.04184C9.58048 5.93128 8.93505 6.0371 8.7085 6.0371C8.47496 6.0371 7.8093 5.91805 7.59973 6.04634C7.42863 6.15116 7.44137 6.72097 7.41464 6.90193C7.37593 7.16474 7.21607 7.46824 7.4671 7.5848C7.68516 7.68588 8.23167 7.58405 8.4797 7.58405V7.5843Z" stroke="#6F6AF8" stroke-width="0.138007" mask="url(#path-2-outside-2_408_2158)"/>
</svg>
