<svg width="40" height="40" viewBox="0 0 40 40" fill="none" xmlns="http://www.w3.org/2000/svg">
<g id="Group 502">
<circle id="Ellipse 326" cx="20" cy="20" r="20" fill="#FCF3D4"/>
<path id="Vector" fill-rule="evenodd" clip-rule="evenodd" d="M16.7208 10.2663C16.8913 10.0958 17.1225 10 17.3636 10H24.6364C26.1426 10 27.3636 11.221 27.3636 12.7273V17.2727C27.3636 17.7748 26.9566 18.1818 26.4545 18.1818C25.9525 18.1818 25.5455 17.7748 25.5455 17.2727V12.7273C25.5455 12.2252 25.1385 11.8182 24.6364 11.8182H18.2727V16.3636C18.2727 16.8657 17.8657 17.2727 17.3636 17.2727H12.8182V27.2727C12.8182 27.7748 13.2252 28.1818 13.7273 28.1818H16.4545C16.9566 28.1818 17.3636 28.5888 17.3636 29.0909C17.3636 29.593 16.9566 30 16.4545 30H13.7273C12.221 30 11 28.779 11 27.2727V16.3636C11 16.1225 11.0958 15.8913 11.2663 15.7208L16.7208 10.2663ZM14.1038 15.4545H16.4545V13.1038L14.1038 15.4545ZM25.2792 20.2663L28.9155 23.9026C29.2705 24.2576 29.2705 24.8333 28.9155 25.1883L25.2792 28.8246C24.9242 29.1796 24.3485 29.1796 23.9935 28.8246C23.6385 28.4696 23.6385 27.894 23.9935 27.539L26.9871 24.5455L23.9935 21.5519C23.6385 21.1969 23.6385 20.6213 23.9935 20.2663C24.3485 19.9113 24.9242 19.9113 25.2792 20.2663ZM21.6428 21.5519C21.9978 21.1969 21.9978 20.6213 21.6428 20.2663C21.2878 19.9113 20.7122 19.9113 20.3572 20.2663L16.7208 23.9026C16.3658 24.2576 16.3658 24.8333 16.7208 25.1883L20.3572 28.8246C20.7122 29.1796 21.2878 29.1796 21.6428 28.8246C21.9978 28.4696 21.9978 27.894 21.6428 27.539L18.6493 24.5455L21.6428 21.5519Z" fill="#FEB907"/>
</g>
</svg>
