<svg width="17" height="22" viewBox="0 0 17 22" fill="none" xmlns="http://www.w3.org/2000/svg">
<g id="Group 513">
<path id="Vector" fill-rule="evenodd" clip-rule="evenodd" d="M6.02243 14.903C3.86461 14.903 2.1154 16.6635 2.1154 18.8352C2.1154 18.8776 2.11895 18.9117 2.12369 18.9372C2.12433 18.9407 2.12496 18.9438 2.12559 18.9467C2.69048 19.2615 4.28904 19.8707 8.109 19.8707C11.9289 19.8707 13.5275 19.2615 14.0925 18.9467C14.093 18.9438 14.0937 18.9407 14.0943 18.9372C14.0991 18.9117 14.1026 18.8776 14.1026 18.8352C14.1026 16.6635 12.3534 14.903 10.1956 14.903H6.02243ZM0 18.8352C0 15.4876 2.69633 12.7739 6.02243 12.7739H10.1956C13.5217 12.7739 16.218 15.4876 16.218 18.8352C16.218 19.4325 16.0169 20.2788 15.2178 20.7516C14.2469 21.3259 12.243 21.9998 8.109 21.9998C3.97503 21.9998 1.97119 21.3259 1.00021 20.7516C0.201108 20.2788 0 19.4325 0 18.8352Z" fill="#01162B"/>
<path id="Vector_2" d="M5.43896 3.68969C5.8239 3.68969 6.20884 3.682 6.59378 3.69353C6.79702 3.69968 6.86015 3.62048 6.85784 3.42285C6.85014 2.7123 6.85245 2.00098 6.85784 1.29043C6.86169 0.54605 7.37289 0.00698727 8.07733 6.63473e-05C8.81949 -0.00685458 9.36149 0.528363 9.36918 1.28736C9.37534 1.97945 9.37996 2.67154 9.36918 3.36363C9.36456 3.61048 9.43231 3.70276 9.69176 3.69661C10.3847 3.68046 11.0775 3.68815 11.765 3.69199C12.4941 3.69199 13.0515 4.23029 13.06 4.91853C13.0632 5.08732 13.0324 5.25502 12.9695 5.41172C12.9067 5.56841 12.8129 5.71089 12.6939 5.83073C12.5748 5.95056 12.4329 6.0453 12.2765 6.10934C12.1202 6.17338 11.9525 6.2054 11.7835 6.20352C11.0829 6.21428 10.3823 6.21428 9.68175 6.20352C9.44078 6.19967 9.36611 6.28042 9.36995 6.51957C9.38073 7.23012 9.38381 7.94144 9.36995 8.65199C9.36827 8.95602 9.25615 9.24911 9.05442 9.47678C8.85269 9.70446 8.57507 9.85125 8.27315 9.88988C7.97123 9.9285 7.66553 9.85634 7.41287 9.68679C7.16021 9.51724 6.97776 9.26184 6.89942 8.96804C6.86811 8.83718 6.8554 8.70257 6.86169 8.56817C6.86169 7.89607 6.85091 7.2232 6.86631 6.5511C6.87247 6.29195 6.80241 6.19583 6.5291 6.20198C5.82928 6.21967 5.12793 6.21505 4.42734 6.20198C4.14605 6.20317 3.87244 6.11045 3.64995 5.93855C3.42745 5.76665 3.26885 5.52542 3.19932 5.25317C3.12978 4.98093 3.15332 4.69329 3.26617 4.43593C3.37903 4.17858 3.57474 3.96626 3.82222 3.83272C3.99078 3.73862 4.18112 3.69036 4.37422 3.69276C4.72913 3.69276 5.08404 3.69276 5.43896 3.69276V3.68969Z" fill="#01162B"/>
</g>
</svg>
