          <svg
            xmlns="http://www.w3.org/2000/svg"
            width="20"
            height="15"
            viewBox="0 0 20 15"
            fill="none"
          >
            <path
              d="M6.18348 0.000808672C6.76314 0.00102223 7.33707 0.115636 7.87235 0.33808C8.40764 0.560524 8.89376 0.886425 9.30285 1.2971C9.71194 1.70778 10.036 2.19515 10.2563 2.7313C10.4767 3.26744 10.5891 3.8418 10.5871 4.42146C10.5838 6.77368 8.71719 8.83826 6.17138 8.83716C3.61127 8.83716 1.74523 6.75223 1.75788 4.39891C1.77163 1.84705 3.88626 -0.0448388 6.18348 0.000808672ZM6.16038 7.02226C7.61285 7.02721 8.80023 5.87008 8.78923 4.41871C8.77658 2.92335 7.60515 1.81076 6.18953 1.80031C4.82725 1.78986 3.56397 2.84855 3.56452 4.40991C3.56287 6.11922 4.99389 7.06296 6.16038 7.02226Z"
              fill="#C33481"
            />
            <path
              d="M6.06271 9.66016C7.74011 9.6992 9.20963 10.0275 10.5048 10.9317C11.4326 11.5795 12.0997 12.4166 12.2972 13.5666C12.3379 13.802 12.3764 14.0401 12.3203 14.2815C12.2762 14.4808 12.1666 14.6596 12.009 14.7892C11.8514 14.9188 11.6548 14.9918 11.4508 14.9965C11.2429 14.9972 11.0413 14.9257 10.8802 14.7944C10.7191 14.663 10.6086 14.4798 10.5675 14.276C10.534 14.1111 10.5362 13.9334 10.4999 13.7668C10.3811 13.2273 10.0362 12.8384 9.61551 12.5134C8.8901 11.953 8.04864 11.6675 7.15274 11.5482C5.97801 11.392 4.82527 11.4855 3.71984 11.9458C3.18802 12.1658 2.70459 12.4633 2.31687 12.8973C2.02043 13.2273 1.82574 13.6018 1.80979 14.0616C1.79605 14.474 1.60741 14.7875 1.20813 14.9382C0.858898 15.0702 0.543765 14.9866 0.27758 14.7347C0.0344932 14.5037 -0.0221527 14.2073 0.00699571 13.8834C0.11699 12.6184 0.785751 11.6912 1.78119 10.9735C2.77664 10.2558 3.91068 9.88069 5.12226 9.7377C5.47534 9.697 5.83117 9.67886 6.06271 9.66016Z"
              fill="#C33481"
            />
            <path
              d="M14.25 6.83438C14.4445 7.02883 14.6428 7.21938 14.8314 7.41966C14.931 7.52543 15.0029 7.51727 15.1017 7.41616C15.4571 7.05294 15.818 6.69438 16.1801 6.33777C16.5585 5.96328 17.0893 5.94889 17.4486 6.30122C17.827 6.67261 17.8301 7.21705 17.4502 7.60477C17.1033 7.95788 16.7556 8.31021 16.4002 8.65476C16.273 8.77726 16.2606 8.85815 16.3947 8.98609C16.7529 9.32793 17.099 9.68181 17.4443 10.031C17.8126 10.3993 17.8219 10.9531 17.4782 11.3054C17.3944 11.3924 17.2941 11.4617 17.1831 11.5091C17.0721 11.5566 16.9527 11.5813 16.8319 11.5818C16.7112 11.5823 16.5916 11.5585 16.4802 11.5119C16.3689 11.4653 16.268 11.3968 16.1836 11.3105C15.8242 10.962 15.4703 10.6081 15.1219 10.2488C15.0021 10.1251 14.9236 10.1283 14.8046 10.2511C14.4507 10.6159 14.0925 10.9772 13.7262 11.3295C13.5716 11.4824 13.3667 11.574 13.1497 11.5872C12.9327 11.6005 12.7182 11.5345 12.5461 11.4015C12.3741 11.2685 12.2562 11.0776 12.2143 10.8643C12.1724 10.6509 12.2094 10.4296 12.3184 10.2414C12.3688 10.1594 12.4304 10.0849 12.5016 10.0201C12.8415 9.68026 13.1763 9.33454 13.524 9.00243C13.6581 8.87448 13.6714 8.79048 13.5302 8.65554C13.1677 8.31098 12.8158 7.95438 12.4685 7.59388C12.3258 7.4524 12.2345 7.2673 12.2091 7.06798C12.1836 6.86866 12.2255 6.66655 12.328 6.49375C12.4306 6.32095 12.5879 6.18737 12.7751 6.11423C12.9623 6.04109 13.1685 6.03258 13.361 6.09005C13.4938 6.12761 13.6143 6.19935 13.7106 6.29811C13.8899 6.47738 14.0692 6.65666 14.2485 6.83594L14.25 6.83438Z"
              fill="#C33481"
            />
          </svg>