<svg width="30" height="21" viewBox="0 0 30 21" fill="none" xmlns="http://www.w3.org/2000/svg">
<path d="M17 20H3.90909C2.30909 20 1 18.6909 1 17.0909V6.90909C1 5.30909 2.30909 4 3.90909 4H17C18.6 4 19.9091 5.30909 19.9091 6.90909V17.0909C19.9091 18.6909 18.6 20 17 20Z" stroke="#01162B" stroke-width="1.6" stroke-miterlimit="10" stroke-linecap="round" stroke-linejoin="round"/>
<path d="M9.00011 8.36328H4.63647V12.7269H9.00011V8.36328Z" stroke="#01162B" stroke-width="1.6" stroke-miterlimit="10" stroke-linecap="round" stroke-linejoin="round"/>
<path d="M11.9092 12.7275H16.2728" stroke="#01162B" stroke-width="1.6" stroke-miterlimit="10" stroke-linecap="round" stroke-linejoin="round"/>
<path d="M4.63647 15.6367H16.2728" stroke="#01162B" stroke-width="1.6" stroke-miterlimit="10" stroke-linecap="round" stroke-linejoin="round"/>
<path d="M23.5365 2.81472C23.8298 2.81472 24.1231 2.80885 24.4164 2.81765C24.5713 2.82235 24.6194 2.76192 24.6176 2.61116C24.6118 2.06911 24.6135 1.52647 24.6176 0.984422C24.6206 0.41656 25.0101 0.00533032 25.5469 5.06138e-05C26.1124 -0.00522909 26.5254 0.403067 26.5312 0.982075C26.5359 1.51005 26.5394 2.03802 26.5312 2.56599C26.5277 2.7543 26.5793 2.82469 26.777 2.82C27.305 2.80768 27.833 2.81355 28.3568 2.81648C28.9124 2.81648 29.3371 3.22712 29.3435 3.75216C29.346 3.88092 29.3226 4.00886 29.2746 4.12839C29.2267 4.24792 29.1553 4.35662 29.0646 4.44804C28.9739 4.53945 28.8657 4.61173 28.7466 4.66058C28.6274 4.70943 28.4997 4.73386 28.3709 4.73242C27.8371 4.74064 27.3032 4.74064 26.7694 4.73242C26.5858 4.72949 26.5289 4.79109 26.5318 4.97353C26.54 5.51558 26.5424 6.05822 26.5318 6.60027C26.5305 6.8322 26.4451 7.05578 26.2914 7.22947C26.1377 7.40316 25.9261 7.51514 25.6961 7.54461C25.466 7.57407 25.2331 7.51902 25.0405 7.38968C24.848 7.26033 24.709 7.0655 24.6493 6.84137C24.6254 6.74154 24.6158 6.63885 24.6206 6.53632C24.6206 6.0236 24.6123 5.5103 24.6241 4.99758C24.6288 4.79989 24.5754 4.72656 24.3671 4.73125C23.8339 4.74474 23.2995 4.74122 22.7656 4.73125C22.5513 4.73216 22.3428 4.66143 22.1733 4.53029C22.0037 4.39915 21.8829 4.21513 21.8299 4.00744C21.7769 3.79976 21.7948 3.58033 21.8808 3.384C21.9668 3.18768 22.116 3.02571 22.3045 2.92383C22.433 2.85205 22.578 2.81523 22.7251 2.81707C22.9956 2.81707 23.266 2.81707 23.5365 2.81707V2.81472Z" fill="#01162B"/>
</svg>
