<svg width="19" height="15" viewBox="0 0 19 15" fill="none" xmlns="http://www.w3.org/2000/svg">
<path fill-rule="evenodd" clip-rule="evenodd" d="M9.37529 1.45161C8.18045 1.45161 7.21184 2.42648 7.21184 3.62903C7.21184 4.83158 8.18045 5.80647 9.37529 5.80647C10.5701 5.80647 11.5388 4.83158 11.5388 3.62903C11.5388 2.42648 10.5701 1.45161 9.37529 1.45161ZM5.76953 3.62903C5.76953 1.62478 7.38388 0 9.37529 0C11.3667 0 12.9811 1.62478 12.9811 3.62903C12.9811 5.63331 11.3667 7.25809 9.37529 7.25809C7.38388 7.25809 5.76953 5.63331 5.76953 3.62903Z" fill="#6F6AF8"/>
<path fill-rule="evenodd" clip-rule="evenodd" d="M7.95189 10.1611C6.48065 10.1611 5.28802 11.3615 5.28802 12.8422C5.28802 12.871 5.29043 12.8943 5.29367 12.9117C5.2941 12.9141 5.29453 12.9162 5.29496 12.9182C5.68011 13.1328 6.77003 13.5482 9.37454 13.5482C11.979 13.5482 13.0689 13.1328 13.4542 12.9182C13.4545 12.9162 13.455 12.9141 13.4554 12.9117C13.4587 12.8943 13.4611 12.871 13.4611 12.8422C13.4611 11.3615 12.2684 10.1611 10.7972 10.1611H7.95189ZM3.8457 12.8422C3.8457 10.5597 5.6841 8.70947 7.95189 8.70947H10.7972C13.065 8.70947 14.9033 10.5597 14.9033 12.8422C14.9033 13.2494 14.7663 13.8264 14.2214 14.1487C13.5594 14.5403 12.1931 14.9998 9.37454 14.9998C6.55593 14.9998 5.18969 14.5403 4.52766 14.1487C3.98282 13.8264 3.8457 13.2494 3.8457 12.8422Z" fill="#6F6AF8"/>
<path fill-rule="evenodd" clip-rule="evenodd" d="M13.7263 1.50439C13.8303 1.11743 14.2262 0.888507 14.6107 0.993094C15.9267 1.35107 16.8263 2.65182 16.8263 4.11311C16.8263 5.65752 15.7733 7.07108 14.2681 7.25305C13.8727 7.30086 13.5136 7.01699 13.4662 6.61902C13.4186 6.22105 13.7007 5.85965 14.0962 5.81184C14.7545 5.73224 15.3841 5.05344 15.3841 4.11311C15.3841 3.22044 14.8414 2.55955 14.2343 2.39442C13.8499 2.28984 13.6224 1.89136 13.7263 1.50439Z" fill="#6F6AF8"/>
<path fill-rule="evenodd" clip-rule="evenodd" d="M15.3982 9.29642C15.4744 8.90304 15.8532 8.64626 16.244 8.72304C17.6997 9.0087 18.7503 10.2922 18.7503 11.7848V12.1772C18.7503 12.5497 18.6393 13.1126 18.1224 13.445C17.7994 13.6529 17.3098 13.867 16.5695 14.0178C16.1792 14.0973 15.7987 13.8432 15.7197 13.4503C15.6408 13.0574 15.8931 12.6744 16.2835 12.595C16.8325 12.4832 17.1427 12.3426 17.3026 12.2485L17.3028 12.2472C17.3058 12.2297 17.3079 12.2063 17.3079 12.1772V11.7848C17.3079 10.9867 16.7463 10.3006 15.9679 10.1478C15.5771 10.0711 15.322 9.68989 15.3982 9.29642Z" fill="#6F6AF8"/>
<path fill-rule="evenodd" clip-rule="evenodd" d="M5.02189 6.72176C4.91798 7.10866 4.52205 7.3376 4.13757 7.23297C2.82154 6.87504 1.92188 5.57429 1.92188 4.113C1.92188 2.56859 2.97499 1.15499 4.48009 0.973027C4.87554 0.925214 5.23461 1.2091 5.28211 1.60708C5.32961 2.00508 5.04755 2.36647 4.65211 2.41427C3.99376 2.49386 3.36418 3.17267 3.36418 4.113C3.36418 5.00567 3.90683 5.6666 4.51387 5.83169C4.89836 5.93623 5.12581 6.33476 5.02189 6.72176Z" fill="#6F6AF8"/>
<path fill-rule="evenodd" clip-rule="evenodd" d="M3.35204 9.29642C3.27581 8.90304 2.8971 8.64626 2.50619 8.72304C1.05056 9.0087 0 10.2922 0 11.7848V12.1772C0 12.5497 0.110981 13.1126 0.627824 13.445C0.950886 13.6529 1.44049 13.867 2.1807 14.0178C2.57108 14.0973 2.95156 13.8432 3.03055 13.4503C3.10952 13.0574 2.85709 12.6744 2.46672 12.595C1.91771 12.4832 1.60755 12.3426 1.44771 12.2485L1.4475 12.2472C1.44452 12.2297 1.4423 12.2063 1.4423 12.1772V11.7848C1.4423 10.9867 2.004 10.3006 2.78227 10.1478C3.17319 10.0711 3.42828 9.68989 3.35204 9.29642Z" fill="#6F6AF8"/>
</svg>
