<svg width="37" height="26" viewBox="0 0 37 26" fill="none" xmlns="http://www.w3.org/2000/svg">
<g id="Group 506">
<path id="Vector" d="M21 25H4.63636C2.63636 25 1 23.3636 1 21.3636V8.63636C1 6.63636 2.63636 5 4.63636 5H21C23 5 24.6364 6.63636 24.6364 8.63636V21.3636C24.6364 23.3636 23 25 21 25Z" stroke="#01162B" stroke-width="2" stroke-miterlimit="10" stroke-linecap="round" stroke-linejoin="round"/>
<path id="Vector_2" d="M10.9995 10.4541H5.54492V15.9086H10.9995V10.4541Z" stroke="#01162B" stroke-width="2" stroke-miterlimit="10" stroke-linecap="round" stroke-linejoin="round"/>
<path id="Vector_3" d="M14.6367 15.9092H20.0913" stroke="#01162B" stroke-width="2" stroke-miterlimit="10" stroke-linecap="round" stroke-linejoin="round"/>
<path id="Vector_4" d="M5.54492 19.5459H20.0904" stroke="#01162B" stroke-width="2" stroke-miterlimit="10" stroke-linecap="round" stroke-linejoin="round"/>
<path id="Vector_5" d="M29.1705 3.5184C29.5372 3.5184 29.9038 3.51107 30.2704 3.52207C30.464 3.52793 30.5242 3.4524 30.522 3.26395C30.5146 2.58639 30.5168 1.90809 30.522 1.23053C30.5256 0.520701 31.0125 0.0066629 31.6835 6.32672e-05C32.3904 -0.00653636 32.9066 0.503834 32.914 1.22759C32.9198 1.88756 32.9242 2.54752 32.914 3.20748C32.9096 3.44287 32.9741 3.53087 33.2212 3.525C33.8812 3.5096 34.5411 3.51693 35.196 3.5206C35.8904 3.5206 36.4213 4.0339 36.4294 4.6902C36.4324 4.85115 36.4031 5.01107 36.3432 5.16049C36.2833 5.3099 36.194 5.44578 36.0807 5.56005C35.9673 5.67432 35.8321 5.76466 35.6832 5.82572C35.5342 5.88679 35.3745 5.91733 35.2136 5.91553C34.5463 5.9258 33.879 5.9258 33.2117 5.91553C32.9822 5.91186 32.911 5.98886 32.9147 6.21691C32.925 6.89448 32.9279 7.57277 32.9147 8.25033C32.9131 8.54025 32.8063 8.81973 32.6142 9.03684C32.422 9.25395 32.1576 9.39392 31.87 9.43076C31.5824 9.46759 31.2913 9.39877 31.0506 9.23709C30.81 9.07542 30.6362 8.83187 30.5616 8.55172C30.5317 8.42693 30.5196 8.29856 30.5256 8.1704C30.5256 7.52951 30.5154 6.88788 30.53 6.24698C30.5359 5.99986 30.4692 5.9082 30.2088 5.91406C29.5423 5.93093 28.8743 5.92653 28.207 5.91406C27.939 5.9152 27.6784 5.82679 27.4665 5.66286C27.2546 5.49894 27.1035 5.26891 27.0373 5.00931C26.9711 4.7497 26.9935 4.47541 27.101 4.23C27.2085 3.98459 27.3949 3.78214 27.6306 3.65479C27.7912 3.56506 27.9724 3.51904 28.1564 3.52133C28.4944 3.52133 28.8325 3.52133 29.1705 3.52133V3.5184Z" fill="#01162B"/>
</g>
</svg>
