<svg width="25" height="20" viewBox="0 0 25 20" fill="none" xmlns="http://www.w3.org/2000/svg">
<path d="M8.24561 0.00107823C9.0185 0.00136298 9.78373 0.154181 10.4974 0.450774C11.2112 0.747366 11.8593 1.1819 12.4048 1.72947C12.9502 2.27704 13.3823 2.92687 13.6761 3.64173C13.9699 4.35658 14.1198 5.1224 14.1171 5.89528C14.1127 9.03157 11.6239 11.7844 8.22948 11.7829C4.81601 11.7829 2.32795 9.00297 2.34481 5.86522C2.36314 2.46274 5.18265 -0.059785 8.24561 0.00107823ZM8.21481 9.36302C10.1514 9.36962 11.7346 7.82677 11.72 5.89162C11.7031 3.89779 10.1412 2.41434 8.25368 2.40041C6.43731 2.38648 4.75294 3.79807 4.75367 5.87988C4.75148 8.15895 6.6595 9.41728 8.21481 9.36302Z" fill="#01162B"/>
<path d="M8.08361 12.8799C10.3201 12.9319 12.2795 13.3697 14.0064 14.5753C15.2435 15.4391 16.133 16.5551 16.3962 18.0885C16.4505 18.4023 16.5018 18.7198 16.427 19.0417C16.3683 19.3075 16.2222 19.5458 16.012 19.7186C15.8018 19.8915 15.5397 19.9888 15.2677 19.995C14.9905 19.9959 14.7217 19.9006 14.5069 19.7255C14.2922 19.5503 14.1448 19.3061 14.09 19.0344C14.0453 18.8144 14.0482 18.5776 13.9998 18.3554C13.8414 17.636 13.3816 17.1176 12.8207 16.6842C11.8535 15.937 10.7315 15.5564 9.53699 15.3973C7.97068 15.189 6.4337 15.3137 4.95978 15.9274C4.25069 16.2208 3.60613 16.6175 3.08915 17.196C2.69391 17.636 2.43432 18.1354 2.41306 18.7484C2.39473 19.2984 2.14321 19.7164 1.61084 19.9173C1.1452 20.0933 0.72502 19.9818 0.370106 19.646C0.045991 19.338 -0.0295369 18.9427 0.00932761 18.5108C0.155986 16.8243 1.04767 15.5879 2.37493 14.631C3.70219 13.674 5.21423 13.1739 6.82968 12.9833C7.30045 12.929 7.77489 12.9048 8.08361 12.8799Z" fill="#01162B"/>
<path d="M17.4039 10.5594C17.7706 10.5594 18.1372 10.5521 18.5038 10.5631C18.6974 10.5689 18.7576 10.4934 18.7554 10.305C18.748 9.6274 18.7502 8.94911 18.7554 8.27154C18.759 7.56172 19.2459 7.04768 19.9169 7.04108C20.6238 7.03448 21.14 7.54485 21.1474 8.26861C21.1532 8.92857 21.1576 9.58854 21.1474 10.2485C21.143 10.4839 21.2075 10.5719 21.4546 10.566C22.1146 10.5506 22.7745 10.5579 23.4294 10.5616C24.1238 10.5616 24.6547 11.0749 24.6628 11.7312C24.6658 11.8922 24.6365 12.0521 24.5766 12.2015C24.5167 12.3509 24.4274 12.4868 24.3141 12.6011C24.2007 12.7153 24.0655 12.8057 23.9166 12.8667C23.7676 12.9278 23.6079 12.9583 23.447 12.9565C22.7797 12.9668 22.1124 12.9668 21.4451 12.9565C21.2156 12.9529 21.1444 13.0299 21.1481 13.2579C21.1584 13.9355 21.1613 14.6138 21.1481 15.2913C21.1465 15.5813 21.0397 15.8607 20.8476 16.0779C20.6554 16.295 20.391 16.4349 20.1034 16.4718C19.8158 16.5086 19.5247 16.4398 19.284 16.2781C19.0434 16.1164 18.8696 15.8729 18.795 15.5927C18.7651 15.4679 18.753 15.3396 18.759 15.2114C18.759 14.5705 18.7488 13.9289 18.7634 13.288C18.7693 13.0409 18.7026 12.9492 18.4422 12.9551C17.7757 12.9719 17.1077 12.9675 16.4404 12.9551C16.1724 12.9562 15.9118 12.8678 15.6999 12.7039C15.488 12.54 15.3369 12.3099 15.2707 12.0503C15.2045 11.7907 15.2269 11.5164 15.3344 11.271C15.4419 11.0256 15.6283 10.8232 15.864 10.6958C16.0246 10.6061 16.2058 10.5601 16.3898 10.5623C16.7278 10.5623 17.0659 10.5623 17.4039 10.5623V10.5594Z" fill="#01162B"/>
</svg>
