<svg width="17" height="16" viewBox="0 0 17 16" fill="none" xmlns="http://www.w3.org/2000/svg">
<path d="M16.2457 6.21105C15.9309 7.88157 15.1434 9.15771 13.9817 10.3771C12.8063 11.6111 11.4777 12.6977 10.1908 13.8096C9.85106 14.1031 9.51127 14.3962 9.17147 14.6894C8.8919 14.9309 8.61076 15.2008 8.21466 15.1858C7.84711 15.172 7.59373 14.9029 7.33175 14.676C6.98414 14.375 6.63418 14.0767 6.28462 13.7781C4.99388 12.6769 3.68907 11.5788 2.50664 10.3574C1.41141 9.22588 0.458116 7.86069 0.279031 6.24966C0.109722 4.72648 0.59497 3.12924 1.69255 2.0493C2.75532 1.00444 4.36865 0.558831 5.80797 0.961097C6.57397 1.17504 7.25199 1.61709 7.79667 2.19587C7.88934 2.29437 8.0477 2.58119 8.16931 2.63005C8.30577 2.68521 8.24555 2.67733 8.38319 2.5741C8.66746 2.36095 8.88095 2.00242 9.1617 1.76839C10.3844 0.749129 12.1537 0.52613 13.5938 1.20222C15.1931 1.95317 15.9599 3.42907 16.2461 5.10944V6.21065L16.2457 6.21105ZM4.74011 1.78848C4.65722 1.79597 4.57471 1.8066 4.49182 1.81015C3.93345 1.833 3.41418 1.99493 2.94731 2.29791C1.72344 3.09141 1.23506 4.28167 1.21746 5.69413C1.20573 6.63932 1.5334 7.48916 2.05384 8.26847C2.68338 9.21169 3.48105 10.0009 4.31234 10.7561C5.56398 11.8932 6.8598 12.9794 8.13177 14.0929C8.22678 14.176 8.27918 14.1764 8.3742 14.0929C9.4663 13.1382 10.5658 12.1922 11.6572 11.2364C12.5725 10.4346 13.4632 9.60687 14.2011 8.62858C15.007 7.56047 15.4433 6.38362 15.2404 5.02237C15.0426 3.69659 14.4111 2.66078 13.1739 2.09737C12.1745 1.64231 11.1621 1.66753 10.1963 2.23487C9.60785 2.5808 9.17812 3.08826 8.81252 3.65916C8.50167 4.14495 8.00977 4.14377 7.69579 3.66034C7.52452 3.39676 7.3427 3.14185 7.12999 2.91057C6.48482 2.21005 5.70396 1.80109 4.7405 1.78809L4.74011 1.78848Z" fill="#6F6AF8" stroke="#6F6AF8" stroke-width="0.3"/>
</svg>
