<svg width="25" height="24" viewBox="0 0 25 24" fill="none" xmlns="http://www.w3.org/2000/svg">
<mask id="path-1-outside-1_138_3361" maskUnits="userSpaceOnUse" x="0" y="0" width="25" height="24" fill="black">
<rect fill="white" width="25" height="24"/>
<path d="M12.5837 1C15.4419 1 18.3001 1 21.158 1C22.9125 1.00036 24.186 2.26813 24.1863 4.01806C24.1874 8.18959 24.1878 12.3611 24.1863 16.5327C24.1856 18.2652 22.9111 19.5442 21.1757 19.5482C19.0563 19.5529 16.9369 19.5514 14.8172 19.546C14.613 19.5457 14.4505 19.6006 14.2876 19.7233C12.949 20.7339 11.6053 21.7376 10.2624 22.7424C10.1726 22.8097 10.0828 22.8798 9.98327 22.9301C9.6202 23.1142 9.21261 22.9196 9.12682 22.521C9.10185 22.4046 9.09533 22.2827 9.09497 22.163C9.09207 21.4251 9.09352 20.6868 9.09352 19.949C9.09352 19.6827 8.96393 19.5495 8.70475 19.5493C7.13122 19.5493 5.55733 19.5648 3.98416 19.5439C2.7632 19.5276 1.85426 18.9633 1.295 17.8688C1.08397 17.455 1.00361 17.0032 1.00325 16.5417C1.00071 12.3622 0.997093 8.18272 1.00397 4.00323C1.00687 2.27211 2.30095 1.00072 4.03375 1.00036C6.88363 0.999638 9.73386 1.00036 12.5837 1.00036V1ZM12.6091 2.22148C9.76753 2.22148 6.92562 2.22148 4.08407 2.2222C3.91611 2.2222 3.74742 2.21316 3.58055 2.25041C2.75198 2.4356 2.2224 3.11091 2.22204 3.99889C2.22059 8.14583 2.23615 12.2931 2.21118 16.4397C2.20466 17.5255 2.98437 18.3611 4.09927 18.3379C5.92872 18.2996 7.75962 18.3264 9.5898 18.3285C10.0781 18.3289 10.3112 18.5654 10.313 19.0545C10.3152 19.6723 10.313 20.2897 10.3148 20.9075C10.3148 20.9773 10.2819 21.0735 10.3453 21.1111C10.4289 21.1607 10.4868 21.063 10.5461 21.0189C11.6328 20.2076 12.7202 19.397 13.8004 18.577C14.0295 18.403 14.267 18.3235 14.5547 18.3245C16.7541 18.3311 18.9539 18.3079 21.1533 18.3368C22.1744 18.3502 22.9813 17.5592 22.9759 16.5316C22.9545 12.3608 22.9672 8.18959 22.9654 4.01842C22.9654 3.85891 22.9632 3.69506 22.9288 3.54025C22.7543 2.75282 22.0836 2.22365 21.2546 2.22292C18.3729 2.22003 15.4908 2.22184 12.6091 2.22148Z"/>
</mask>
<path d="M12.5837 1C15.4419 1 18.3001 1 21.158 1C22.9125 1.00036 24.186 2.26813 24.1863 4.01806C24.1874 8.18959 24.1878 12.3611 24.1863 16.5327C24.1856 18.2652 22.9111 19.5442 21.1757 19.5482C19.0563 19.5529 16.9369 19.5514 14.8172 19.546C14.613 19.5457 14.4505 19.6006 14.2876 19.7233C12.949 20.7339 11.6053 21.7376 10.2624 22.7424C10.1726 22.8097 10.0828 22.8798 9.98327 22.9301C9.6202 23.1142 9.21261 22.9196 9.12682 22.521C9.10185 22.4046 9.09533 22.2827 9.09497 22.163C9.09207 21.4251 9.09352 20.6868 9.09352 19.949C9.09352 19.6827 8.96393 19.5495 8.70475 19.5493C7.13122 19.5493 5.55733 19.5648 3.98416 19.5439C2.7632 19.5276 1.85426 18.9633 1.295 17.8688C1.08397 17.455 1.00361 17.0032 1.00325 16.5417C1.00071 12.3622 0.997093 8.18272 1.00397 4.00323C1.00687 2.27211 2.30095 1.00072 4.03375 1.00036C6.88363 0.999638 9.73386 1.00036 12.5837 1.00036V1ZM12.6091 2.22148C9.76753 2.22148 6.92562 2.22148 4.08407 2.2222C3.91611 2.2222 3.74742 2.21316 3.58055 2.25041C2.75198 2.4356 2.2224 3.11091 2.22204 3.99889C2.22059 8.14583 2.23615 12.2931 2.21118 16.4397C2.20466 17.5255 2.98437 18.3611 4.09927 18.3379C5.92872 18.2996 7.75962 18.3264 9.5898 18.3285C10.0781 18.3289 10.3112 18.5654 10.313 19.0545C10.3152 19.6723 10.313 20.2897 10.3148 20.9075C10.3148 20.9773 10.2819 21.0735 10.3453 21.1111C10.4289 21.1607 10.4868 21.063 10.5461 21.0189C11.6328 20.2076 12.7202 19.397 13.8004 18.577C14.0295 18.403 14.267 18.3235 14.5547 18.3245C16.7541 18.3311 18.9539 18.3079 21.1533 18.3368C22.1744 18.3502 22.9813 17.5592 22.9759 16.5316C22.9545 12.3608 22.9672 8.18959 22.9654 4.01842C22.9654 3.85891 22.9632 3.69506 22.9288 3.54025C22.7543 2.75282 22.0836 2.22365 21.2546 2.22292C18.3729 2.22003 15.4908 2.22184 12.6091 2.22148Z" fill="#01162B"/>
<path d="M12.5837 1C15.4419 1 18.3001 1 21.158 1C22.9125 1.00036 24.186 2.26813 24.1863 4.01806C24.1874 8.18959 24.1878 12.3611 24.1863 16.5327C24.1856 18.2652 22.9111 19.5442 21.1757 19.5482C19.0563 19.5529 16.9369 19.5514 14.8172 19.546C14.613 19.5457 14.4505 19.6006 14.2876 19.7233C12.949 20.7339 11.6053 21.7376 10.2624 22.7424C10.1726 22.8097 10.0828 22.8798 9.98327 22.9301C9.6202 23.1142 9.21261 22.9196 9.12682 22.521C9.10185 22.4046 9.09533 22.2827 9.09497 22.163C9.09207 21.4251 9.09352 20.6868 9.09352 19.949C9.09352 19.6827 8.96393 19.5495 8.70475 19.5493C7.13122 19.5493 5.55733 19.5648 3.98416 19.5439C2.7632 19.5276 1.85426 18.9633 1.295 17.8688C1.08397 17.455 1.00361 17.0032 1.00325 16.5417C1.00071 12.3622 0.997093 8.18272 1.00397 4.00323C1.00687 2.27211 2.30095 1.00072 4.03375 1.00036C6.88363 0.999638 9.73386 1.00036 12.5837 1.00036V1ZM12.6091 2.22148C9.76753 2.22148 6.92562 2.22148 4.08407 2.2222C3.91611 2.2222 3.74742 2.21316 3.58055 2.25041C2.75198 2.4356 2.2224 3.11091 2.22204 3.99889C2.22059 8.14583 2.23615 12.2931 2.21118 16.4397C2.20466 17.5255 2.98437 18.3611 4.09927 18.3379C5.92872 18.2996 7.75962 18.3264 9.5898 18.3285C10.0781 18.3289 10.3112 18.5654 10.313 19.0545C10.3152 19.6723 10.313 20.2897 10.3148 20.9075C10.3148 20.9773 10.2819 21.0735 10.3453 21.1111C10.4289 21.1607 10.4868 21.063 10.5461 21.0189C11.6328 20.2076 12.7202 19.397 13.8004 18.577C14.0295 18.403 14.267 18.3235 14.5547 18.3245C16.7541 18.3311 18.9539 18.3079 21.1533 18.3368C22.1744 18.3502 22.9813 17.5592 22.9759 16.5316C22.9545 12.3608 22.9672 8.18959 22.9654 4.01842C22.9654 3.85891 22.9632 3.69506 22.9288 3.54025C22.7543 2.75282 22.0836 2.22365 21.2546 2.22292C18.3729 2.22003 15.4908 2.22184 12.6091 2.22148Z" stroke="black" stroke-width="0.4" mask="url(#path-1-outside-1_138_3361)"/>
<mask id="path-2-outside-2_138_3361" maskUnits="userSpaceOnUse" x="6.94971" y="4.62012" width="11" height="11" fill="black">
<rect fill="white" x="6.94971" y="4.62012" width="11" height="11"/>
<path d="M12.9302 7.93067C13.3212 7.93067 14.0404 8.0721 14.3992 7.93321C14.7839 7.78418 14.7101 7.40042 14.7669 7.0058C14.8158 6.6676 14.7966 6.08164 15.0471 5.81941C15.3345 5.51847 15.8308 5.59298 16.0259 5.96047C16.1982 6.28528 16.0158 6.87775 15.9669 7.21559C15.8865 7.77189 15.7504 7.90391 16.3292 7.92778C16.6901 7.94297 17.0988 7.95382 17.2241 8.37123C17.3536 8.80347 17.0101 9.07764 16.6315 9.14564C16.3325 9.19917 15.8467 9.00566 15.6726 9.29647C15.4858 9.60862 15.5256 10.3024 15.4706 10.6662C15.3917 11.1896 15.2502 11.3839 15.8239 11.3954C16.212 11.4034 16.8067 11.2779 17.1013 11.6143C17.6342 12.2234 16.848 12.6017 16.3423 12.6205C16.0715 12.6307 15.4471 12.4903 15.2317 12.6755C14.978 12.894 15.0315 13.7773 14.9758 14.0948C14.9157 14.4381 14.8484 14.8443 14.4321 14.9134C14.0701 14.9734 13.8041 14.7094 13.7487 14.3748C13.6861 13.9972 13.8392 13.5313 13.8902 13.1573C13.9767 12.5221 13.7693 12.6151 13.1713 12.6187C12.6504 12.622 12.1295 12.6227 11.6083 12.6202C11.301 12.6187 10.7547 12.4809 10.5513 12.7598C10.1705 13.2817 10.7384 14.7596 9.80743 14.9141C8.64764 15.1065 9.37957 13.374 9.30753 12.9016C9.20871 12.2556 7.93671 12.9678 7.95481 11.9926C7.97291 11.0345 9.23152 11.7011 9.54898 11.1954C9.75132 10.8731 9.72816 10.0108 9.76978 9.62526C9.83386 9.03242 9.61703 9.15902 9.09397 9.15794C8.68819 9.15685 8.11915 9.20315 7.97725 8.7087C7.84513 8.24753 8.21001 7.98819 8.60819 7.93393C8.94447 7.88799 9.7039 8.10429 9.97105 7.88004C10.2031 7.68508 10.1506 6.92694 10.1973 6.62962C10.2653 6.19703 10.3269 5.55681 10.9314 5.62517C11.381 5.67617 11.4704 6.0802 11.4468 6.45203C11.4298 6.72403 11.0993 7.74295 11.3216 7.91765C11.5609 8.10574 12.6157 7.93104 12.9299 7.93104L12.9302 7.93067ZM12.4285 11.3962C12.7319 11.3962 13.7266 11.5495 13.9869 11.3889C14.2982 11.1969 14.2515 10.6351 14.3014 10.2814C14.3394 10.0112 14.5791 9.31347 14.3083 9.16083C14.0238 9.0006 13.0884 9.15396 12.7601 9.15396C12.4217 9.15396 11.457 8.98142 11.1533 9.16734C10.9053 9.31926 10.9238 10.145 10.885 10.4073C10.8289 10.7881 10.5973 11.228 10.9611 11.3969C11.2771 11.5434 12.0691 11.3958 12.4285 11.3958V11.3962Z"/>
</mask>
<path d="M12.9302 7.93067C13.3212 7.93067 14.0404 8.0721 14.3992 7.93321C14.7839 7.78418 14.7101 7.40042 14.7669 7.0058C14.8158 6.6676 14.7966 6.08164 15.0471 5.81941C15.3345 5.51847 15.8308 5.59298 16.0259 5.96047C16.1982 6.28528 16.0158 6.87775 15.9669 7.21559C15.8865 7.77189 15.7504 7.90391 16.3292 7.92778C16.6901 7.94297 17.0988 7.95382 17.2241 8.37123C17.3536 8.80347 17.0101 9.07764 16.6315 9.14564C16.3325 9.19917 15.8467 9.00566 15.6726 9.29647C15.4858 9.60862 15.5256 10.3024 15.4706 10.6662C15.3917 11.1896 15.2502 11.3839 15.8239 11.3954C16.212 11.4034 16.8067 11.2779 17.1013 11.6143C17.6342 12.2234 16.848 12.6017 16.3423 12.6205C16.0715 12.6307 15.4471 12.4903 15.2317 12.6755C14.978 12.894 15.0315 13.7773 14.9758 14.0948C14.9157 14.4381 14.8484 14.8443 14.4321 14.9134C14.0701 14.9734 13.8041 14.7094 13.7487 14.3748C13.6861 13.9972 13.8392 13.5313 13.8902 13.1573C13.9767 12.5221 13.7693 12.6151 13.1713 12.6187C12.6504 12.622 12.1295 12.6227 11.6083 12.6202C11.301 12.6187 10.7547 12.4809 10.5513 12.7598C10.1705 13.2817 10.7384 14.7596 9.80743 14.9141C8.64764 15.1065 9.37957 13.374 9.30753 12.9016C9.20871 12.2556 7.93671 12.9678 7.95481 11.9926C7.97291 11.0345 9.23152 11.7011 9.54898 11.1954C9.75132 10.8731 9.72816 10.0108 9.76978 9.62526C9.83386 9.03242 9.61703 9.15902 9.09397 9.15794C8.68819 9.15685 8.11915 9.20315 7.97725 8.7087C7.84513 8.24753 8.21001 7.98819 8.60819 7.93393C8.94447 7.88799 9.7039 8.10429 9.97105 7.88004C10.2031 7.68508 10.1506 6.92694 10.1973 6.62962C10.2653 6.19703 10.3269 5.55681 10.9314 5.62517C11.381 5.67617 11.4704 6.0802 11.4468 6.45203C11.4298 6.72403 11.0993 7.74295 11.3216 7.91765C11.5609 8.10574 12.6157 7.93104 12.9299 7.93104L12.9302 7.93067ZM12.4285 11.3962C12.7319 11.3962 13.7266 11.5495 13.9869 11.3889C14.2982 11.1969 14.2515 10.6351 14.3014 10.2814C14.3394 10.0112 14.5791 9.31347 14.3083 9.16083C14.0238 9.0006 13.0884 9.15396 12.7601 9.15396C12.4217 9.15396 11.457 8.98142 11.1533 9.16734C10.9053 9.31926 10.9238 10.145 10.885 10.4073C10.8289 10.7881 10.5973 11.228 10.9611 11.3969C11.2771 11.5434 12.0691 11.3958 12.4285 11.3958V11.3962Z" fill="#01162B"/>
<path d="M12.9302 7.93067C13.3212 7.93067 14.0404 8.0721 14.3992 7.93321C14.7839 7.78418 14.7101 7.40042 14.7669 7.0058C14.8158 6.6676 14.7966 6.08164 15.0471 5.81941C15.3345 5.51847 15.8308 5.59298 16.0259 5.96047C16.1982 6.28528 16.0158 6.87775 15.9669 7.21559C15.8865 7.77189 15.7504 7.90391 16.3292 7.92778C16.6901 7.94297 17.0988 7.95382 17.2241 8.37123C17.3536 8.80347 17.0101 9.07764 16.6315 9.14564C16.3325 9.19917 15.8467 9.00566 15.6726 9.29647C15.4858 9.60862 15.5256 10.3024 15.4706 10.6662C15.3917 11.1896 15.2502 11.3839 15.8239 11.3954C16.212 11.4034 16.8067 11.2779 17.1013 11.6143C17.6342 12.2234 16.848 12.6017 16.3423 12.6205C16.0715 12.6307 15.4471 12.4903 15.2317 12.6755C14.978 12.894 15.0315 13.7773 14.9758 14.0948C14.9157 14.4381 14.8484 14.8443 14.4321 14.9134C14.0701 14.9734 13.8041 14.7094 13.7487 14.3748C13.6861 13.9972 13.8392 13.5313 13.8902 13.1573C13.9767 12.5221 13.7693 12.6151 13.1713 12.6187C12.6504 12.622 12.1295 12.6227 11.6083 12.6202C11.301 12.6187 10.7547 12.4809 10.5513 12.7598C10.1705 13.2817 10.7384 14.7596 9.80743 14.9141C8.64764 15.1065 9.37957 13.374 9.30753 12.9016C9.20871 12.2556 7.93671 12.9678 7.95481 11.9926C7.97291 11.0345 9.23152 11.7011 9.54898 11.1954C9.75132 10.8731 9.72816 10.0108 9.76978 9.62526C9.83386 9.03242 9.61703 9.15902 9.09397 9.15794C8.68819 9.15685 8.11915 9.20315 7.97725 8.7087C7.84513 8.24753 8.21001 7.98819 8.60819 7.93393C8.94447 7.88799 9.7039 8.10429 9.97105 7.88004C10.2031 7.68508 10.1506 6.92694 10.1973 6.62962C10.2653 6.19703 10.3269 5.55681 10.9314 5.62517C11.381 5.67617 11.4704 6.0802 11.4468 6.45203C11.4298 6.72403 11.0993 7.74295 11.3216 7.91765C11.5609 8.10574 12.6157 7.93104 12.9299 7.93104L12.9302 7.93067ZM12.4285 11.3962C12.7319 11.3962 13.7266 11.5495 13.9869 11.3889C14.2982 11.1969 14.2515 10.6351 14.3014 10.2814C14.3394 10.0112 14.5791 9.31347 14.3083 9.16083C14.0238 9.0006 13.0884 9.15396 12.7601 9.15396C12.4217 9.15396 11.457 8.98142 11.1533 9.16734C10.9053 9.31926 10.9238 10.145 10.885 10.4073C10.8289 10.7881 10.5973 11.228 10.9611 11.3969C11.2771 11.5434 12.0691 11.3958 12.4285 11.3958V11.3962Z" stroke="black" stroke-width="0.2" mask="url(#path-2-outside-2_138_3361)"/>
</svg>
