<svg width="22" height="17" viewBox="0 0 22 17" fill="none" xmlns="http://www.w3.org/2000/svg">
<path d="M4.1746 1.71436V16.0001M4.1746 1.71436L7.34921 4.88896M4.1746 1.71436L1 4.88896" stroke="#6F6AF8" stroke-width="1.5" stroke-linecap="round" stroke-linejoin="round"/>
<path fill-rule="evenodd" clip-rule="evenodd" d="M16.9805 2.53034C17.2315 1.77747 16.6711 1 15.8775 1C15.502 1 15.1496 1.18134 14.9314 1.48688L13.0235 4.15789H11.4511L11 4.60902V9.1203L11.4511 9.57143H18.0458L19.4314 6.80018C19.8429 5.97726 19.6816 4.9834 19.0311 4.33281C18.6301 3.93196 18.0865 3.70677 17.5196 3.70677H16.5883L16.9805 2.53034ZM13.7068 4.75362L15.6656 2.01131C15.7145 1.94288 15.7934 1.90226 15.8775 1.90226C16.0552 1.90226 16.1808 2.0764 16.1245 2.24502L15.3366 4.60902H17.5196C17.8472 4.60902 18.1614 4.73919 18.393 4.97083C18.769 5.34677 18.8622 5.92114 18.6244 6.39669L17.4882 8.66917H13.7068V4.75362ZM12.8045 8.66917H11.9023V5.06015H12.8045V8.66917Z" fill="#6F6AF8" stroke="#6F6AF8" stroke-width="0.3"/>
<path d="M11.7148 11.7141H18.1434" stroke="#6F6AF8" stroke-width="1.5" stroke-linecap="round"/>
<path d="M11.7148 13.8569H20.2863" stroke="#6F6AF8" stroke-width="1.5" stroke-linecap="round"/>
<path d="M11.7148 15.9998H19.572" stroke="#6F6AF8" stroke-width="1.5" stroke-linecap="round"/>
</svg>
