<svg width="16" height="18" viewBox="0 0 16 18" fill="none" xmlns="http://www.w3.org/2000/svg">
<path d="M5.50049 7.68377V13.1383C5.50049 13.5148 5.80575 13.8201 6.18231 13.8201C6.55886 13.8201 6.86412 13.5148 6.86412 13.1383V7.68377C6.86412 7.30722 6.55886 7.00195 6.18231 7.00195C5.80575 7.00195 5.50049 7.30722 5.50049 7.68377Z" fill="#EE7E8B"/>
<path d="M8.9096 7.00195C9.28616 7.00195 9.59142 7.30722 9.59142 7.68377V13.1383C9.59142 13.5148 9.28616 13.8201 8.9096 13.8201C8.53305 13.8201 8.22778 13.5148 8.22778 13.1383V7.68377C8.22778 7.30722 8.53305 7.00195 8.9096 7.00195Z" fill="#EE7E8B"/>
<path d="M10.2732 3.59251H14.3641C14.7406 3.59251 15.0459 3.89777 15.0459 4.27433C15.0459 4.65088 14.7406 4.95614 14.3641 4.95614H13.6107L12.584 14.1963C12.3921 15.9228 10.9329 17.2289 9.19578 17.2289H5.89601C4.15891 17.2289 2.6996 15.9228 2.50777 14.1963L1.48108 4.95614H0.727717C0.351162 4.95614 0.0458984 4.65088 0.0458984 4.27433C0.0458984 3.89777 0.351162 3.59251 0.727717 3.59251H4.81863C4.81863 2.08628 6.03967 0.865234 7.5459 0.865234C9.05213 0.865234 10.2732 2.08628 10.2732 3.59251ZM7.5459 2.22887C6.79279 2.22887 6.18226 2.8394 6.18226 3.59251H8.90953C8.90953 2.8394 8.29902 2.22887 7.5459 2.22887ZM2.85312 4.95614L3.86306 14.0456C3.97816 15.0816 4.85374 15.8652 5.89601 15.8652H9.19578C10.238 15.8652 11.1136 15.0816 11.2287 14.0456L12.2387 4.95614H2.85312Z" fill="#EE7E8B"/>
</svg>
