<svg width="24" height="17" viewBox="0 0 24 17" fill="none" xmlns="http://www.w3.org/2000/svg">
<path d="M4.33333 1V16M4.33333 1L7.66667 4.33333M4.33333 1L1 4.33333" stroke="#34C38F" stroke-width="1.5" stroke-linecap="round" stroke-linejoin="round"/>
<path fill-rule="evenodd" clip-rule="evenodd" d="M19.5625 10C21.1158 10 22.375 11.2592 22.375 12.8125V13.9375C22.375 14.2482 22.1232 14.5 21.8125 14.5C21.5018 14.5 21.25 14.2482 21.25 13.9375V12.8125C21.25 11.8805 20.4945 11.125 19.5625 11.125H15.0625C14.1305 11.125 13.375 11.8805 13.375 12.8125V13.9375C13.375 14.2482 13.1232 14.5 12.8125 14.5C12.5018 14.5 12.25 14.2482 12.25 13.9375V12.8125C12.25 11.2592 13.5092 10 15.0625 10H19.5625ZM22.6079 7.23322C22.8276 7.01355 23.1838 7.01355 23.4035 7.23322C23.6062 7.436 23.6218 7.75507 23.4503 7.97573L23.4035 8.02872L21.8124 9.61969C21.6097 9.82245 21.2906 9.83805 21.0699 9.66648L21.017 9.61969L20.2215 8.82421C20.0018 8.60455 20.0018 8.24837 20.2215 8.02872C20.4242 7.82596 20.7433 7.81036 20.964 7.98193L21.017 8.02872L21.4147 8.42646L22.6079 7.23322ZM17.3125 3.25C18.8658 3.25 20.125 4.5092 20.125 6.0625C20.125 7.6158 18.8658 8.875 17.3125 8.875C15.7592 8.875 14.5 7.6158 14.5 6.0625C14.5 4.5092 15.7592 3.25 17.3125 3.25ZM17.3125 4.375C16.3805 4.375 15.625 5.13052 15.625 6.0625C15.625 6.99448 16.3805 7.75 17.3125 7.75C18.2445 7.75 19 6.99448 19 6.0625C19 5.13052 18.2445 4.375 17.3125 4.375Z" fill="#34C38F" stroke="#34C38F" stroke-width="0.3"/>
</svg>
