<svg width="12" height="12" viewBox="0 0 12 12" fill="none" xmlns="http://www.w3.org/2000/svg">
<g id="x">
<path id="Union" fill-rule="evenodd" clip-rule="evenodd" d="M11.6368 1.11325C11.1524 0.628917 10.3672 0.628918 9.88283 1.11325L6.375 4.62108L2.86716 1.11325C2.38283 0.628919 1.59758 0.628919 1.11325 1.11325C0.628917 1.59758 0.628918 2.38284 1.11325 2.86717L4.62108 6.375L1.11325 9.88283C0.628919 10.3672 0.628919 11.1524 1.11325 11.6367C1.59758 12.1211 2.38284 12.1211 2.86717 11.6367L6.375 8.12892L9.88283 11.6368C10.3672 12.1211 11.1524 12.1211 11.6367 11.6368C12.1211 11.1524 12.1211 10.3672 11.6367 9.88283L8.12892 6.375L11.6368 2.86716C12.1211 2.38283 12.1211 1.59758 11.6368 1.11325Z" fill="#01162B"/>
</g>
</svg>
