<svg width="16" height="15" viewBox="0 0 16 15" fill="none" xmlns="http://www.w3.org/2000/svg">
<g id="Page-1">
<g id="Dribbble-Light-Preview">
<g id="icons">
<path id="save_item-[#1411]" fill-rule="evenodd" clip-rule="evenodd" d="M5.41406 3C5.41406 2.586 5.76685 2.25 6.20155 2.25C6.63625 2.25 6.98907 2.586 6.98907 3C6.98907 3.414 6.63625 3.75 6.20155 3.75C5.76685 3.75 5.41406 3.414 5.41406 3ZM14.175 12.75C14.175 13.164 13.8222 13.5 13.3875 13.5H12.6V10.5C12.6 9.67125 11.8952 9 11.025 9H4.72499C3.8548 9 3.15001 9.67125 3.15001 10.5V13.5H2.3625C1.9278 13.5 1.575 13.164 1.575 12.75V5.283C1.575 5.18325 1.61673 5.08801 1.68997 5.01826L3.15001 3.62775V4.5C3.15001 5.32875 3.8548 6 4.72499 6H11.025C11.8952 6 12.6 5.32875 12.6 4.5V1.5H13.3875C13.8222 1.5 14.175 1.836 14.175 2.25V12.75ZM11.025 13.5H4.72499V11.25C4.72499 10.836 5.0778 10.5 5.5125 10.5H10.2375C10.6722 10.5 11.025 10.836 11.025 11.25V13.5ZM4.72499 2.12775L5.38415 1.5H11.025V3.75C11.025 4.164 10.6722 4.5 10.2375 4.5H5.5125C5.0778 4.5 4.72499 4.164 4.72499 3.75V2.12775ZM14.175 0H5.05103C4.84235 0 4.6423 0.0787495 4.49425 0.219749L0.230736 4.28025C0.0826858 4.42125 0 4.61175 0 4.8105V13.5C0 14.3287 0.704817 15 1.575 15H14.175C15.0452 15 15.75 14.3287 15.75 13.5V1.5C15.75 0.67125 15.0452 0 14.175 0Z" fill="white"/>
</g>
</g>
</g>
</svg>
