<svg width="16" height="20" viewBox="0 0 16 20" fill="none" xmlns="http://www.w3.org/2000/svg">
<path d="M0.307055 10.1036C0.307055 7.56886 0.305751 5.03409 0.307925 2.49932C0.30836 1.54131 0.939659 0.773508 1.87574 0.589358C1.9953 0.56596 2.12052 0.56336 2.24313 0.56336C5.22136 0.561627 8.1996 0.56336 11.1778 0.558594C11.4135 0.558594 11.5913 0.634854 11.7557 0.799505C12.8487 1.89574 13.9448 2.98851 15.0452 4.07781C15.2217 4.25286 15.2978 4.44351 15.2974 4.69395C15.2921 9.01953 15.2943 13.3451 15.293 17.6707C15.293 18.8449 14.4765 19.6565 13.2974 19.6569C9.63089 19.6578 5.9644 19.643 2.29791 19.666C1.2127 19.6725 0.284882 18.7739 0.29749 17.6646C0.32662 15.1446 0.306621 12.6241 0.306621 10.1041L0.307055 10.1036ZM7.79047 18.5867C9.60915 18.5867 11.4278 18.588 13.2469 18.5858C13.8691 18.5849 14.2187 18.2361 14.2191 17.6148C14.2208 13.5202 14.2191 9.42596 14.223 5.33133C14.223 5.15455 14.173 5.09215 13.99 5.09475C13.3161 5.10385 12.6422 5.10125 11.9683 5.09735C11.277 5.09345 10.7465 4.56267 10.7426 3.87286C10.7391 3.23029 10.7417 2.58728 10.7413 1.9447C10.7413 1.73672 10.6404 1.63259 10.4387 1.6323C7.76482 1.6323 5.09093 1.6323 2.41747 1.6323C1.70791 1.6323 1.38096 1.95943 1.38096 2.6696C1.38096 7.63082 1.38096 12.5916 1.38096 17.5528C1.38096 18.2604 1.70965 18.5867 2.42095 18.5867C4.21094 18.5871 6.00048 18.5867 7.79047 18.5867ZM13.3787 4.02668C12.8535 3.50196 12.3413 2.98981 11.8187 2.46812C11.8187 2.78226 11.6565 3.75631 11.8887 3.97382C12.1174 4.18743 13.0678 4.02668 13.3782 4.02668H13.3787Z" fill="#FFBD00"/>
<path d="M6.5656 14.1033C7.77124 15.0146 9.68905 14.0817 10.3404 12.946C10.5164 12.6388 10.6312 12.3039 10.6882 11.9546C10.7408 11.6323 10.6817 11.205 11.0216 11.0226C11.9903 10.5027 11.7977 12.144 11.6834 12.5608C11.2503 14.1406 9.81775 15.3304 8.18733 15.4873C7.42298 15.5609 6.6569 15.4076 5.97169 15.067C5.90082 15.0319 5.68778 14.862 5.60865 14.8958C5.51996 14.934 5.5243 15.1931 5.45039 15.2858C5.25213 15.5336 4.84735 15.5739 4.62388 15.3313C4.33171 15.0141 4.47692 14.3161 4.47953 13.9188C4.48258 13.4556 4.51171 13.1219 5.02083 13.0426C5.40257 12.9833 6.32169 12.9204 6.66343 13.1068C7.0756 13.3316 6.99038 13.8334 6.6356 14.0622C6.61821 14.0734 6.59951 14.0838 6.5656 14.1038V14.1033Z" fill="#FFBD00"/>
<path d="M9.00993 8.8698C7.88385 8.00105 6.02039 8.87804 5.3517 9.89455C5.15996 10.1857 5.0217 10.5103 4.94562 10.8504C4.87823 11.1524 4.93779 11.587 4.73171 11.8353C4.53736 12.0692 4.15432 12.0965 3.93606 11.8738C3.6765 11.6091 3.78911 11.0956 3.84389 10.7694C4.10823 9.19131 5.41822 7.89143 6.98125 7.56385C7.78472 7.39574 8.62254 7.49496 9.37558 7.81603C9.50775 7.87236 9.80036 8.10461 9.9234 8.08771C10.0782 8.06648 9.97427 8.04221 10.0591 7.92479C10.2564 7.65181 10.4699 7.29911 10.8943 7.58899C11.2621 7.8403 11.1243 8.5639 11.1208 8.93913C11.1173 9.35899 11.1786 9.79359 10.699 9.93268C10.3191 10.0427 9.53949 10.0193 9.14645 9.94567C8.6795 9.85815 8.45428 9.27927 8.88732 8.97249C8.92689 8.94433 8.98471 8.93956 9.00993 8.8698Z" fill="#FFBD00"/>
</svg>
