<svg width="14" height="12" viewBox="0 0 14 12" fill="none" xmlns="http://www.w3.org/2000/svg">
<g id="Group">
<path id="Vector" d="M12.8277 11.0003C12.7338 11.0005 12.6433 10.9651 12.5743 10.9013C11.0887 9.53069 9.14811 8.75885 7.12696 8.73469C5.1058 8.71053 3.14732 9.43577 1.62936 10.7705C1.59267 10.8044 1.54956 10.8307 1.50257 10.8477C1.45558 10.8648 1.40566 10.8722 1.35574 10.8697C1.30582 10.8671 1.25691 10.8546 1.2119 10.8329C1.16688 10.8112 1.12668 10.7807 1.09363 10.7432C1.06058 10.7057 1.03536 10.6619 1.01946 10.6145C1.00356 10.5672 0.997309 10.5171 1.00105 10.4672C1.0048 10.4174 1.01848 10.3688 1.04129 10.3243C1.06409 10.2798 1.09556 10.2404 1.13384 10.2082C2.79061 8.75093 4.92843 7.9589 7.13478 7.985C9.34113 8.0111 11.4596 8.85346 13.0815 10.3496C13.137 10.4006 13.1759 10.4673 13.1929 10.5408C13.2099 10.6144 13.2044 10.6913 13.1769 10.7616C13.1495 10.8319 13.1015 10.8923 13.0392 10.9349C12.9769 10.9775 12.9032 11.0003 12.8277 11.0003Z" fill="#798693" stroke="#798693" stroke-width="0.2"/>
<path id="Vector_2" d="M7.30302 1.74966C7.89229 1.74966 8.46833 1.92439 8.9583 2.25176C9.44827 2.57914 9.83016 3.04446 10.0557 3.58887C10.2812 4.13328 10.3402 4.73234 10.2253 5.3103C10.1104 5.88826 9.82663 6.41915 9.40997 6.83586C8.99332 7.25256 8.46247 7.53637 7.88452 7.65137C7.30658 7.76638 6.70751 7.70743 6.16307 7.48198C5.61863 7.25652 5.15326 6.87469 4.82582 6.38476C4.49838 5.89483 4.32358 5.31881 4.32351 4.72954C4.3244 3.93956 4.63859 3.18219 5.19715 2.62356C5.75571 2.06493 6.51304 1.75065 7.30302 1.74966ZM7.30302 1C6.56549 1.00007 5.84454 1.21884 5.23134 1.62863C4.61814 2.03843 4.14022 2.62084 3.85802 3.30224C3.57581 3.98364 3.50199 4.73343 3.64589 5.45678C3.7898 6.18013 4.14496 6.84457 4.66647 7.36608C5.18798 7.88759 5.85242 8.24275 6.57577 8.38665C7.29912 8.53055 8.0489 8.45674 8.7303 8.17453C9.4117 7.89233 9.99412 7.41441 10.4039 6.80121C10.8137 6.18801 11.0325 5.46706 11.0325 4.72954C11.0326 4.23975 10.9362 3.75476 10.7488 3.30224C10.5614 2.84973 10.2866 2.43857 9.94031 2.09224C9.59398 1.74591 9.18281 1.4712 8.7303 1.28379C8.27779 1.09638 7.7928 0.999951 7.30302 1Z" fill="#798693" stroke="#798693" stroke-width="0.2"/>
</g>
</svg>
