<svg width="25" height="17" viewBox="0 0 25 17" fill="none" xmlns="http://www.w3.org/2000/svg">
<path d="M4.33333 1V16M4.33333 1L7.66667 4.33333M4.33333 1L1 4.33333" stroke="#FFBD00" stroke-width="1.5" stroke-linecap="round" stroke-linejoin="round"/>
<path d="M19.5622 8.5001C19.5622 9.56525 18.6988 10.4287 17.6336 10.4287C16.5685 10.4287 15.7051 9.56525 15.7051 8.5001C15.7051 7.43495 16.5685 6.57153 17.6336 6.57153C18.6988 6.57153 19.5622 7.43495 19.5622 8.5001Z" stroke="#FFBD00" stroke-width="1.4" stroke-linecap="round" stroke-linejoin="round"/>
<path d="M17.6343 4C14.7558 4 12.3192 5.89185 11.5 8.5C12.3192 11.1081 14.7558 13 17.6343 13C20.5127 13 22.9494 11.1081 23.7686 8.5C22.9494 5.89187 20.5127 4 17.6343 4Z" stroke="#FFBD00" stroke-width="1.4" stroke-linecap="round" stroke-linejoin="round"/>
</svg>
