          <svg
            xmlns="http://www.w3.org/2000/svg"
            width="15"
            height="15"
            viewBox="0 0 15 15"
            fill="none"
          >
            <path
              d="M0.75 1.5C0.75 1.173 1.08442 0.75 1.70455 0.75H5.11364C5.73377 0.75 6.06818 1.173 6.06818 1.5V13.182L5.40604 12.5161C5.07757 12.1857 4.63094 12 4.16508 12H1.70455C1.08441 12 0.75 11.577 0.75 11.25V1.5Z"
              stroke="#F0CD00"
              strokeWidth="1.5"
            />
            <path
              d="M14.25 1.5C14.25 1.173 13.9156 0.75 13.2955 0.75H9.88636C9.26623 0.75 8.93182 1.173 8.93182 1.5V13.182L9.59396 12.5161C9.92243 12.1857 10.3691 12 10.8349 12H13.2955C13.9156 12 14.25 11.577 14.25 11.25V1.5Z"
              stroke="#F0CD00"
              strokeWidth="1.5"
            />
          </svg>