<svg width="32" height="22" viewBox="0 0 32 22" fill="none" xmlns="http://www.w3.org/2000/svg">
<g id="Followers">
<path id="Vector" d="M5.44444 1V21M5.44444 1L9.88889 5.44444M5.44444 1L1 5.44444" stroke="#01162B" stroke-width="2" stroke-linecap="round" stroke-linejoin="round"/>
<path id="&#229;&#189;&#162;&#231;&#138;&#182;" fill-rule="evenodd" clip-rule="evenodd" d="M25.75 13C27.821 13 29.5 14.679 29.5 16.75V18.25C29.5 18.6642 29.1642 19 28.75 19C28.3358 19 28 18.6642 28 18.25V16.75C28 15.5073 26.9927 14.5 25.75 14.5H19.75C18.5074 14.5 17.5 15.5073 17.5 16.75V18.25C17.5 18.6642 17.1642 19 16.75 19C16.3358 19 16 18.6642 16 18.25V16.75C16 14.679 17.6789 13 19.75 13H25.75ZM29.8106 9.31096C30.1035 9.01807 30.5784 9.01807 30.8713 9.31096C31.1416 9.58133 31.1624 10.0068 30.9337 10.301L30.8713 10.3716L28.7499 12.4929C28.4796 12.7633 28.0541 12.7841 27.7599 12.5553L27.6893 12.4929L26.6286 11.4323C26.3357 11.1394 26.3357 10.6645 26.6286 10.3716C26.899 10.1013 27.3244 10.0805 27.6186 10.3092L27.6893 10.3716L28.2196 10.9019L29.8106 9.31096ZM22.75 4C24.821 4 26.5 5.67894 26.5 7.75C26.5 9.82106 24.821 11.5 22.75 11.5C20.6789 11.5 19 9.82106 19 7.75C19 5.67894 20.6789 4 22.75 4ZM22.75 5.5C21.5073 5.5 20.5 6.50736 20.5 7.75C20.5 8.99264 21.5073 10 22.75 10C23.9927 10 25 8.99264 25 7.75C25 6.50736 23.9927 5.5 22.75 5.5Z" fill="#01162B" stroke="#01162B" stroke-width="0.3"/>
</g>
</svg>
