                  <svg
                    width="40"
                    height="40"
                    viewBox="0 0 40 40"
                    fill="none"
                    xmlns="http://www.w3.org/2000/svg"
                  >
                    <circle cx="20" cy="20" r="20" fill="#F5F5F5" />
                    <path
                      d="M27.9918 14.9836C27.9554 15.3464 27.9171 15.7092 27.8835 16.0721C27.8307 16.6437 27.7912 17.2169 27.7271 17.7873C27.6681 18.3069 27.1656 18.5333 26.7453 18.2362C25.9133 17.6481 25.0842 17.0559 24.2579 16.4595C23.9232 16.2183 23.8966 15.7792 24.1895 15.5122C24.2886 15.4194 24.4168 15.3639 24.5523 15.3552C24.6878 15.3464 24.8221 15.3849 24.9324 15.4641C25.1693 15.624 25.4015 15.7933 25.6553 15.9399C25.6033 15.8664 25.5536 15.7913 25.4989 15.7198C24.4929 14.3893 23.1733 13.5448 21.5253 13.2801C19.5681 12.9653 17.8294 13.4822 16.339 14.8006C15.7701 15.3042 15.3267 15.9051 14.9705 16.5737C14.8079 16.8791 14.5014 17.0038 14.2112 16.8947C13.8625 16.7622 13.7182 16.3845 13.8922 16.0388C14.1839 15.4586 14.554 14.9212 14.992 14.4417C16.1349 13.1905 17.5381 12.4035 19.206 12.0958C19.4305 12.0543 19.658 12.0317 19.884 12H21.1426C21.3201 12.0254 21.4984 12.0477 21.6755 12.0782C23.4478 12.3695 24.9148 13.207 26.0979 14.5515C26.3173 14.8065 26.5208 15.0747 26.7074 15.3546C26.7387 15.3124 26.7543 15.2605 26.7516 15.208C26.7711 14.9949 26.7872 14.7814 26.8118 14.5687C26.8427 14.3052 27.0261 14.1183 27.3029 14.0577C27.5285 14.0081 27.7893 14.1254 27.9171 14.3338C27.9425 14.3752 27.9664 14.4178 27.991 14.4597L27.9918 14.9836Z"
                      fill="#01162B"
                      stroke="#01162B"
                      strokeWidth="0.3"
                    />
                    <path
                      d="M14.2692 23.6042C14.2399 23.8947 14.2176 24.1461 14.1879 24.3963C14.1488 24.7201 13.8751 24.957 13.5697 24.9406C13.2366 24.9222 12.9833 24.6634 13.0009 24.3213C13.02 23.908 13.0619 23.4959 13.0978 23.0838C13.1404 22.599 13.1874 22.1142 13.2331 21.6297C13.2491 21.46 13.2554 21.2888 13.2871 21.1215C13.3746 20.6597 13.8532 20.4666 14.2438 20.7399C14.8631 21.1731 15.4758 21.616 16.0908 22.0551C16.3093 22.2115 16.5291 22.3648 16.7445 22.5243C17.0264 22.7335 17.0929 23.0951 16.9044 23.3649C16.7089 23.6449 16.3477 23.7062 16.0509 23.5076C15.9336 23.4294 15.8198 23.345 15.7045 23.2629L15.3597 23.0169C15.3511 23.0717 15.3827 23.0951 15.4023 23.1233C16.4079 24.5308 17.7583 25.4219 19.4657 25.7018C21.4121 26.0205 23.1445 25.5087 24.6337 24.2059C25.2167 23.6953 25.6702 23.083 26.0327 22.4004C26.1984 22.0876 26.528 21.9703 26.824 22.1048C27.1485 22.2526 27.2736 22.6111 27.1071 22.9423C26.8178 23.5185 26.4511 24.0525 26.017 24.5293C24.9129 25.7433 23.5648 26.5479 21.9508 26.8525C19.644 27.2876 17.5718 26.759 15.751 25.269C15.2084 24.8209 14.7353 24.2946 14.3474 23.7074C14.3314 23.6843 14.3118 23.6632 14.2692 23.6042Z"
                      fill="#01162B"
                      stroke="#01162B"
                      strokeWidth="0.3"
                    />
                  </svg>