<svg width="20" height="20" viewBox="0 0 20 20" fill="none" xmlns="http://www.w3.org/2000/svg">
<path d="M10.4668 7.85266L9.91837 7.44086C9.13668 6.85395 8.02048 7.41168 8.02048 8.38918V10.8613C8.02048 11.8388 9.13668 12.3966 9.91837 11.8097L10.4668 11.3979L11.5661 10.5743C12.1993 10.1 12.1993 9.15051 11.5661 8.67618L10.4668 7.85266ZM10.4668 7.85266L9.91837 7.44086C9.13668 6.85395 8.02048 7.41168 8.02048 8.38918V10.8613C8.02048 11.8388 9.13668 12.3966 9.91837 11.8097L10.4668 11.3979L11.5661 10.5743C12.1993 10.1 12.1993 9.15051 11.5661 8.67618L10.4668 7.85266ZM10.4668 7.85266L9.91837 7.44086C9.13668 6.85395 8.02048 7.41168 8.02048 8.38918V10.8613C8.02048 11.8388 9.13668 12.3966 9.91837 11.8097L10.4668 11.3979L11.5661 10.5743C12.1993 10.1 12.1993 9.15051 11.5661 8.67618L10.4668 7.85266ZM8.30543 3.35051C8.5985 3.28923 8.82257 3.03983 8.82257 2.74042V2.29939C8.82257 1.94872 8.51918 1.67278 8.17427 1.7361C7.03975 1.94435 5.99025 2.39295 5.07715 3.02445C4.78925 3.22357 4.76903 3.63219 5.01569 3.88058L5.32501 4.19208C5.53598 4.40453 5.8707 4.42376 6.12116 4.25973C6.77738 3.82995 7.51357 3.51607 8.30543 3.35051ZM4.25911 6.12178C4.42315 5.87131 4.40392 5.53659 4.19147 5.32562L3.87997 5.0163C3.63158 4.76964 3.22296 4.78986 3.02384 5.07776C2.39234 5.99086 1.94374 7.04036 1.73549 8.17488C1.67217 8.51979 1.9481 8.82318 2.29878 8.82318H2.73981C3.03922 8.82318 3.28862 8.59911 3.3499 8.30604C3.51546 7.51418 3.82934 6.77799 4.25911 6.12178ZM3.3499 10.9445C3.28861 10.6514 3.03922 10.4273 2.73981 10.4273H2.29878C1.9481 10.4273 1.67217 10.7307 1.73549 11.0756C1.9436 12.2094 2.39172 13.2582 3.02253 14.1709C3.22204 14.4595 3.63187 14.4791 3.87998 14.231L4.19244 13.9185C4.40429 13.7067 4.42217 13.3716 4.25744 13.1214C3.82852 12.4698 3.51525 11.7352 3.3499 10.9445ZM5.01569 15.3699C4.76903 15.6183 4.78926 16.0269 5.07729 16.2259C5.99102 16.857 7.04338 17.3054 8.17402 17.5139C8.51899 17.5775 8.82257 17.3016 8.82257 16.9508V16.5101C8.82257 16.2107 8.5985 15.9613 8.30543 15.9C7.51357 15.7345 6.77738 15.4206 6.12116 14.9908C5.8707 14.8268 5.53598 14.846 5.32501 15.0584L5.01569 15.3699ZM17.6455 9.62526C17.6455 13.5383 14.8349 16.806 11.1187 17.5101C10.7728 17.5756 10.4668 17.2994 10.4668 16.9473V16.5053C10.4668 16.2079 10.6881 15.9595 10.9787 15.8966C13.8709 15.2707 16.0413 12.6951 16.0413 9.62526C16.0413 6.55543 13.8709 3.97984 10.9787 3.35391C10.6881 3.29101 10.4668 3.0426 10.4668 2.74527V2.30322C10.4668 1.95117 10.7728 1.67488 11.1187 1.74042C14.8349 2.4445 17.6455 5.71224 17.6455 9.62526Z" fill="#6F6AF8"/>
</svg>
