<svg width="29" height="22" viewBox="0 0 29 22" fill="none" xmlns="http://www.w3.org/2000/svg">
<path d="M5.44444 1V21M5.44444 1L9.88889 5.44444M5.44444 1L1 5.44444" stroke="#01162B" stroke-width="2" stroke-linecap="round" stroke-linejoin="round"/>
<path fill-rule="evenodd" clip-rule="evenodd" d="M23.3727 2.14248C23.7241 1.08845 22.9396 0 21.8285 0C21.3028 0 20.8094 0.25387 20.5039 0.681634L17.8329 4.42105H15.6316L15 5.05263V11.3684L15.6316 12H24.8641L26.804 8.12025C27.3801 6.96817 27.1542 5.57676 26.2435 4.66594C25.6822 4.10475 24.9211 3.78947 24.1274 3.78947H22.8237L23.3727 2.14248ZM18.7895 5.25507L21.5318 1.41583C21.6003 1.32003 21.7108 1.26316 21.8285 1.26316C22.0773 1.26316 22.2531 1.50696 22.1743 1.74302L21.0712 5.05263H24.1274C24.5861 5.05263 25.026 5.23486 25.3502 5.55916C25.8766 6.08547 26.0071 6.8896 25.6742 7.55537L24.0835 10.7368H18.7895V5.25507ZM17.5263 10.7368H16.2632V5.68421H17.5263V10.7368Z" fill="#01162B"/>
<path d="M16 15H25" stroke="#01162B" stroke-width="1.5" stroke-linecap="round"/>
<path d="M16 18H28" stroke="#01162B" stroke-width="1.5" stroke-linecap="round"/>
<path d="M16 21H27" stroke="#01162B" stroke-width="1.5" stroke-linecap="round"/>
</svg>
