<svg width="15" height="15" viewBox="0 0 15 15" fill="none" xmlns="http://www.w3.org/2000/svg">
<g id="Group 493">
<circle id="Ellipse 242" cx="7.5" cy="7.5" r="7.5" fill="#2A86FF"/>
<path id="Vector" d="M4 7.38986C4.03443 7.27352 4.08429 7.16565 4.17892 7.08509C4.42094 6.87903 4.73249 6.89379 4.9645 7.12495C5.44887 7.60745 5.93137 8.09165 6.41506 8.57466C6.50223 8.66167 6.4829 8.66421 6.57363 8.57348C7.69535 7.45244 8.8169 6.3309 9.9381 5.20901C10.0529 5.09419 10.1798 5.00719 10.3494 5.00058C10.5816 4.99159 10.7586 5.08775 10.8692 5.28855C10.9803 5.49037 10.9618 5.69219 10.83 5.88146C10.8044 5.91827 10.7723 5.95083 10.7406 5.98271C9.46781 7.25605 8.19481 8.52921 6.92165 9.80238C6.70829 10.0157 6.45933 10.0576 6.21443 9.92177C6.15473 9.8887 6.10521 9.84223 6.05721 9.79441C5.44938 9.18657 4.84222 8.57806 4.23303 7.97158C4.12737 7.86626 4.03748 7.75398 4 7.6066C4 7.53436 4 7.46211 4 7.38986Z" fill="white"/>
</g>
</svg>
