<svg width="22" height="22" viewBox="0 0 22 22" fill="none" xmlns="http://www.w3.org/2000/svg">
<g id="Rep">
<g id="Group">
<path id="Vector" d="M18.0711 3.92895C14.1658 0.0236849 7.83419 0.0236849 3.92893 3.92895C0.548669 7.30921 0.0942105 12.5074 2.56583 16.3765L1.97988 19.3862C1.90664 19.7624 2.23758 20.0934 2.6138 20.0201L5.62352 19.4342C9.49256 21.9058 14.6908 21.4513 18.0711 18.0711C21.9763 14.1658 21.9763 7.83421 18.0711 3.92895Z" stroke="#01162B" stroke-width="2" stroke-linejoin="round"/>
</g>
<path id="Vector_2" d="M6.60274 10.832L6.60278 10.832L6.5952 10.8271C6.52355 10.7812 6.5 10.7413 6.5 10.649C6.5 10.5411 6.52921 10.5001 6.5952 10.4579L6.59524 10.4579L6.60274 10.4529L10.9668 7.54793L10.9668 7.548L10.9743 7.54281C11.0169 7.51332 11.0524 7.5027 11.0877 7.50034C11.1127 7.49868 11.1415 7.50235 11.1842 7.52676C11.2373 7.55709 11.2699 7.59074 11.293 7.62825C11.3149 7.66381 11.3231 7.69492 11.3231 7.73096V9.18998V9.68998H11.8231C12.5266 9.68998 13.1687 9.86275 13.7593 10.2079C14.3538 10.5553 14.8218 11.0233 15.1692 11.6178C15.5067 12.1953 15.6794 12.8221 15.6868 13.5075C15.3973 13.1271 15.0488 12.7899 14.6427 12.4971C13.809 11.896 12.8638 11.595 11.8231 11.595H11.3231V12.095V13.554C11.3231 13.59 11.3149 13.6212 11.293 13.6567C11.2699 13.6942 11.2373 13.7279 11.1842 13.7582C11.1415 13.7826 11.1127 13.7863 11.0877 13.7846C11.0524 13.7823 11.0169 13.7716 10.9743 13.7422L10.9744 13.7421L10.9668 13.737L6.60274 10.832Z" fill="#01162B" stroke="black"/>
</g>
</svg>
