<svg width="10" height="10" viewBox="0 0 10 10" fill="none" xmlns="http://www.w3.org/2000/svg">
<g id="Edit">
<path id="Vector" d="M0 2.71879C0.0699533 2.38074 0.233503 2.10132 0.516638 1.89791C0.725521 1.74784 0.959219 1.66245 1.21676 1.66187C2.33151 1.65933 3.44627 1.66011 4.56103 1.66108C4.78183 1.66128 4.95828 1.80529 4.99462 2.00812C5.03234 2.21895 4.91939 2.41416 4.71794 2.48958C4.65814 2.51186 4.59698 2.51108 4.53524 2.51108C3.45956 2.51108 2.38369 2.51088 1.30801 2.51127C1.08603 2.51127 0.941047 2.60018 0.871875 2.77447C0.851163 2.82665 0.843542 2.88038 0.843542 2.93646C0.843933 4.86702 0.843542 6.79737 0.844324 8.72793C0.844519 8.97941 1.01549 9.14862 1.26912 9.14862C3.19636 9.14941 5.12359 9.14941 7.05082 9.14862C7.31305 9.14843 7.48031 8.97394 7.48129 8.69959C7.48324 8.16342 7.48187 7.62704 7.48187 7.09086C7.48187 6.54159 7.48148 5.99232 7.48207 5.44305C7.48226 5.17575 7.65187 4.99481 7.9012 4.99363C8.15385 4.99266 8.33186 5.17692 8.33206 5.44501C8.33284 6.55 8.3344 7.65498 8.33147 8.75997C8.32991 9.32781 7.92269 9.83448 7.37362 9.96618C7.32536 9.97771 7.27748 9.98005 7.22863 9.98005C5.18436 9.98005 3.14008 9.98435 1.096 9.97653C0.692889 9.97497 0.408386 9.736 0.186803 9.41691C0.0906657 9.27837 0.0441604 9.11912 0.0001954 8.95909C-1.81981e-10 6.87905 0 4.79882 0 2.71879Z" fill="#01162B"/>
<path id="Vector_2" d="M3.78886 6.45224C3.59913 6.45674 3.51022 6.33579 3.54735 6.14742C3.61339 5.81309 3.68139 5.47915 3.74861 5.14502C3.7492 5.14189 3.75095 5.13876 3.75095 5.13564C3.76698 4.7931 3.94538 4.55002 4.18631 4.31437C5.16643 3.35554 6.12995 2.37971 7.09953 1.41014C7.19332 1.31635 7.19351 1.31635 7.2877 1.41053C7.72207 1.84471 8.15488 2.28026 8.5918 2.71189C8.65999 2.77931 8.66683 2.81956 8.59492 2.89069C8.00306 3.47513 7.41432 4.0627 6.82597 4.65066C6.38475 5.09167 5.94334 5.5325 5.50721 5.9784C5.38841 6.09994 5.25632 6.1695 5.08808 6.1992C4.68223 6.27091 4.27912 6.35747 3.87484 6.43778C3.83986 6.44482 3.80449 6.4497 3.78886 6.45224Z" fill="#01162B"/>
<path id="Vector_3" d="M9.03014 0C9.39827 0.0189538 9.73573 0.222365 9.90964 0.640326C10.0806 1.05125 10.0109 1.43854 9.70446 1.76876C9.52997 1.95674 9.34219 2.13221 9.16262 2.31569C9.11787 2.36141 9.08759 2.35965 9.04304 2.31491C8.58951 1.85884 8.13462 1.40415 7.67856 0.950426C7.63361 0.90568 7.63283 0.875393 7.67836 0.830841C7.86184 0.651464 8.04044 0.467006 8.2245 0.288411C8.42518 0.0937921 8.66826 0.0003908 9.03014 0Z" fill="#01162B"/>
</g>
</svg>
