<svg width="10" height="10" viewBox="0 0 10 10" fill="none" xmlns="http://www.w3.org/2000/svg">
<path d="M4.08934 9.99957C3.34216 9.99957 2.59498 10.0007 1.8478 9.99929C0.946182 9.99758 0.210925 9.39461 0.0332143 8.51089C0.00993591 8.3962 0 8.28009 0 8.16256C0.000851649 6.65741 -0.000851649 5.15255 0.00113553 3.6474C0.00227106 2.735 0.655486 1.97533 1.55511 1.83367C1.6346 1.82118 1.73112 1.84843 1.7896 1.78967C1.84808 1.73091 1.82083 1.63467 1.83332 1.55518C1.97526 0.655841 2.73493 0.00262592 3.64733 0.00149039C5.15248 -0.000496795 6.65734 -0.000496795 8.16249 0.00149039C9.18844 0.0029098 9.99694 0.811125 9.99836 1.83765C10.0006 3.34279 10.0003 4.84766 9.99836 6.35281C9.99723 7.26549 9.34458 8.02403 8.44439 8.16682C8.3649 8.17931 8.26866 8.15206 8.2099 8.21082C8.15114 8.26959 8.17867 8.36582 8.1659 8.44531C8.02282 9.34579 7.26485 9.99531 6.35188 9.99957C6.34479 9.99957 6.33769 9.99957 6.33059 9.99957C5.5837 9.99957 4.83652 9.99957 4.08934 9.99957ZM7.24924 5.91449C7.24952 5.91449 7.24981 5.91449 7.25009 5.91449C7.25009 5.1781 7.25037 4.44171 7.24981 3.70531C7.24981 3.62412 7.2535 3.54236 7.2359 3.46203C7.14278 3.03223 6.79417 2.75118 6.34138 2.75061C4.84361 2.74891 3.34613 2.74976 1.84836 2.75061C1.78137 2.75061 1.71295 2.75203 1.64794 2.76594C1.20026 2.86246 0.928014 3.21959 0.92773 3.71127C0.926878 5.17356 0.927446 6.63584 0.927446 8.09812C0.927446 8.20089 0.936814 8.30337 0.964067 8.40273C1.07819 8.82032 1.4268 9.07184 1.89747 9.07212C3.36316 9.07326 4.82914 9.07241 6.29482 9.07269C6.38737 9.07269 6.47878 9.0619 6.5682 9.0409C6.96536 8.9475 7.24555 8.60684 7.24782 8.19833C7.25236 7.43696 7.24924 6.67587 7.24924 5.91449ZM5.90931 0.927801C5.17263 0.927801 4.43624 0.926382 3.69956 0.928369C3.22434 0.929504 2.87346 1.19635 2.76956 1.62871C2.72925 1.79648 2.74032 1.81068 2.91406 1.81068C4.05073 1.81068 5.18768 1.80727 6.32435 1.8121C6.90886 1.81465 7.39941 2.03438 7.77471 2.48973C8.05887 2.83436 8.18719 3.23691 8.18804 3.6792C8.19088 4.81955 8.18889 5.95991 8.18918 7.09999C8.18918 7.25328 8.20734 7.26805 8.35411 7.23483C8.78703 7.13718 9.06893 6.79254 9.07035 6.32839C9.07489 4.84113 9.07518 3.35358 9.07007 1.86632C9.06865 1.47229 8.89377 1.17279 8.52302 1.00587C8.38449 0.943415 8.23658 0.928653 8.08726 0.928369C7.36137 0.927233 6.63548 0.927801 5.90931 0.927801Z" fill="#01162B"/>
</svg>
