<svg width="37" height="26" viewBox="0 0 37 26" fill="none" xmlns="http://www.w3.org/2000/svg">
<g id="Group 506">
<path id="Vector" d="M21 25H4.63636C2.63636 25 1 23.3636 1 21.3636V8.63636C1 6.63636 2.63636 5 4.63636 5H21C23 5 24.6364 6.63636 24.6364 8.63636V21.3636C24.6364 23.3636 23 25 21 25Z" stroke="#01162B" stroke-width="2" stroke-miterlimit="10" stroke-linecap="round" stroke-linejoin="round"/>
<path id="Vector_2" d="M10.9995 10.4541H5.54492V15.9086H10.9995V10.4541Z" stroke="#01162B" stroke-width="2" stroke-miterlimit="10" stroke-linecap="round" stroke-linejoin="round"/>
<path id="Vector_3" d="M14.6367 15.9092H20.0913" stroke="#01162B" stroke-width="2" stroke-miterlimit="10" stroke-linecap="round" stroke-linejoin="round"/>
<path id="Vector_4" d="M5.54492 19.5459H20.0904" stroke="#01162B" stroke-width="2" stroke-miterlimit="10" stroke-linecap="round" stroke-linejoin="round"/>
<path id="Vector_5" d="M36.7799 6.59335L34.1244 3.93787L35.1866 2.87567C35.2814 2.78081 35.349 2.66232 35.3825 2.53251C35.4161 2.40269 35.4142 2.26627 35.3773 2.1374C35.3403 2.00852 35.2695 1.89188 35.1723 1.79958C35.075 1.70728 34.9549 1.64267 34.8243 1.61246L27.9199 0.0191192C27.7958 -0.00942704 27.6665 -0.00595868 27.5441 0.0291985C27.4216 0.0643556 27.3102 0.130048 27.2201 0.220107C27.1301 0.310166 27.0644 0.421636 27.0292 0.544051C26.994 0.666465 26.9906 0.795807 27.0191 0.919931L28.6124 7.82423C28.6426 7.95486 28.7072 8.07502 28.7995 8.17227C28.8918 8.26951 29.0085 8.34029 29.1373 8.37726C29.2662 8.41423 29.4026 8.41605 29.5325 8.38253C29.6623 8.349 29.7808 8.28136 29.8756 8.18661L30.9378 7.12441L33.5933 9.77993C33.663 9.8497 33.7458 9.90504 33.837 9.9428C33.9281 9.98056 34.0258 10 34.1244 10C34.2231 10 34.3207 9.98056 34.4119 9.9428C34.503 9.90504 34.5858 9.8497 34.6555 9.77993L36.7799 7.65556C36.8497 7.58583 36.905 7.50304 36.9428 7.41191C36.9806 7.32078 37 7.2231 37 7.12446C37 7.02582 36.9806 6.92814 36.9428 6.83701C36.905 6.74588 36.8497 6.66308 36.7799 6.59335ZM34.1244 8.18666L31.4689 5.53115C31.3992 5.46138 31.3164 5.40604 31.2253 5.36828C31.1341 5.33052 31.0365 5.31108 30.9378 5.31108C30.8392 5.31108 30.7415 5.33052 30.6504 5.36828C30.5592 5.40604 30.4764 5.46138 30.4067 5.53115L29.7714 6.16641L28.7533 1.75327L33.1664 2.77146L32.5311 3.40674C32.4614 3.47647 32.406 3.55926 32.3682 3.65039C32.3305 3.74152 32.3111 3.8392 32.3111 3.93784C32.3111 4.03648 32.3305 4.13415 32.3682 4.22528C32.406 4.31641 32.4614 4.39921 32.5311 4.46894L35.1866 7.12446L34.1244 8.18666Z" fill="#01162B"/>
</g>
</svg>
