<svg width="10" height="12" viewBox="0 0 10 12" fill="none" xmlns="http://www.w3.org/2000/svg">
<g id="Group 1">
<g id="Delete">
<path id="Vector" d="M9.17368 6.66326C9.17368 7.54816 9.174 8.43274 9.17368 9.31764C9.17337 10.4744 8.31222 11.3362 7.15579 11.3362C5.82282 11.3365 4.48985 11.3368 3.15688 11.3362C2.18512 11.3358 1.39146 10.6872 1.19867 9.7354C1.17617 9.62479 1.16211 9.51293 1.16211 9.39919C1.16273 7.55941 1.16211 5.71962 1.16305 3.88015C1.16336 3.49363 1.48863 3.23866 1.83297 3.35083C2.04826 3.42082 2.18199 3.60924 2.1823 3.85046C2.18324 4.85222 2.18262 5.85398 2.18262 6.85574C2.18262 7.68221 2.18105 8.50836 2.18324 9.33483C2.18449 9.79509 2.45571 10.1591 2.88004 10.2772C2.97784 10.3044 3.07845 10.3166 3.18031 10.3166C4.50547 10.3166 5.83063 10.3175 7.1561 10.316C7.74697 10.3153 8.15318 9.90539 8.15349 9.31108C8.15443 7.50254 8.15443 5.694 8.15286 3.88546C8.15286 3.74797 8.17755 3.62236 8.26629 3.51456C8.40502 3.34646 8.61906 3.28553 8.82497 3.35489C9.03089 3.42426 9.16962 3.60799 9.17243 3.8339C9.17681 4.1923 9.17399 4.55101 9.17399 4.90971C9.17368 5.49402 9.17368 6.07864 9.17368 6.66326Z" fill="#2A3042"/>
<path id="Vector_2" d="M5.15649 2.84819C3.83133 2.84819 2.50648 2.8485 1.18132 2.84787C0.946976 2.84787 0.767934 2.71883 0.692005 2.5026C0.623263 2.30669 0.68888 2.07952 0.855424 1.9436C0.959787 1.8583 1.08102 1.82737 1.21444 1.82768C1.81063 1.82924 2.40712 1.82549 3.0033 1.8308C3.12141 1.83174 3.15984 1.79768 3.1561 1.67863C3.14797 1.42554 3.15266 1.17213 3.15391 0.918721C3.1561 0.539077 3.36357 0.331601 3.74009 0.331289C4.69092 0.330977 5.64206 0.330977 6.59289 0.331289C6.97159 0.331289 7.17876 0.537203 7.18094 0.917159C7.1825 1.17057 7.18657 1.42398 7.17907 1.67707C7.17563 1.79362 7.20938 1.83205 7.32999 1.8308C7.93398 1.82518 8.53797 1.82674 9.14228 1.82893C9.45599 1.83018 9.67253 2.05453 9.66628 2.36324C9.66066 2.62727 9.44599 2.84506 9.17884 2.84694C8.68796 2.85037 8.19676 2.84819 7.70557 2.84819C6.85598 2.8485 6.00639 2.84819 5.15649 2.84819ZM5.17305 1.82799C5.46114 1.82799 5.74923 1.82612 6.03701 1.82924C6.11638 1.83018 6.152 1.80268 6.14825 1.72113C6.1445 1.64332 6.142 1.5649 6.14887 1.48772C6.15856 1.37929 6.11575 1.34805 6.00858 1.3493C5.51832 1.3543 5.02775 1.35148 4.53719 1.35148C4.17723 1.35148 4.18004 1.35148 4.18566 1.70863C4.18723 1.80018 4.21785 1.8308 4.30877 1.82955C4.59687 1.82549 4.88496 1.82799 5.17305 1.82799Z" fill="#2A3042"/>
<path id="Vector_3" d="M6.67282 6.58149C6.67282 7.15424 6.67344 7.72698 6.6725 8.30004C6.67188 8.61719 6.46378 8.83592 6.16537 8.83529C5.86853 8.83467 5.65356 8.61344 5.65325 8.30067C5.652 7.15111 5.652 6.00156 5.65356 4.852C5.65387 4.59609 5.81323 4.39424 6.04914 4.33894C6.27817 4.28519 6.50877 4.39237 6.62063 4.60328C6.66407 4.68515 6.67375 4.77232 6.67344 4.86356C6.67219 5.436 6.67282 6.00874 6.67282 6.58149Z" fill="#2A3042"/>
<path id="Vector_4" d="M3.66231 6.57041C3.66231 6.00141 3.66169 5.43273 3.66263 4.86373C3.66294 4.54658 3.87135 4.32848 4.16975 4.3291C4.46691 4.32973 4.68157 4.55064 4.68188 4.86373C4.68313 6.00922 4.68313 7.15503 4.68188 8.30052C4.68157 8.57517 4.51003 8.78796 4.26318 8.83046C4.00946 8.8742 3.7773 8.73859 3.68731 8.49643C3.66356 8.43238 3.66231 8.36707 3.66231 8.30083C3.66263 7.72371 3.66231 7.1469 3.66231 6.57041Z" fill="#2A3042"/>
</g>
</g>
</svg>
