<svg width="17" height="17" viewBox="0 0 17 17" fill="none" xmlns="http://www.w3.org/2000/svg">
<path d="M15.8333 10.583V6.08301C15.8333 2.33301 14.3333 0.833008 10.5833 0.833008H6.08325C2.33325 0.833008 0.833252 2.33301 0.833252 6.08301V10.583C0.833252 14.333 2.33325 15.833 6.08325 15.833H10.5833C14.3333 15.833 15.8333 14.333 15.8333 10.583Z" stroke="#6F6AF8" stroke-width="1.125" stroke-linecap="round" stroke-linejoin="round"/>
<path d="M1.2229 4.66602H15.4429" stroke="#6F6AF8" stroke-width="1.125" stroke-linecap="round" stroke-linejoin="round"/>
<path d="M5.7229 0.916016V4.56102" stroke="#6F6AF8" stroke-width="1.125" stroke-linecap="round" stroke-linejoin="round"/>
<path d="M10.9436 0.916016V4.22352" stroke="#6F6AF8" stroke-width="1.125" stroke-linecap="round" stroke-linejoin="round"/>
<path d="M6.64575 10.1711V9.27108C6.64575 8.11608 7.46325 7.64358 8.46075 8.22108L9.24075 8.67108L10.0208 9.12108C11.0183 9.69858 11.0183 10.6436 10.0208 11.2211L9.24075 11.6711L8.46075 12.1211C7.46325 12.6986 6.64575 12.2261 6.64575 11.0711V10.1711Z" stroke="#6F6AF8" stroke-width="1.125" stroke-miterlimit="10" stroke-linecap="round" stroke-linejoin="round"/>
</svg>
