<svg width="18" height="22" viewBox="0 0 18 22" fill="none" xmlns="http://www.w3.org/2000/svg">
<g id="Noti">
<path id="Vector" d="M8.99796 1.96387C5.70769 1.96387 3.03375 4.63781 3.03375 7.92805V10.8008C3.03375 11.4071 2.7753 12.3316 2.46715 12.8485L1.32402 14.7471C0.61826 15.92 1.10533 17.2222 2.39757 17.6596C6.68184 19.091 11.3041 19.091 15.5884 17.6596C16.7912 17.262 17.318 15.8405 16.6619 14.7471L15.5188 12.8485C15.2206 12.3316 14.9621 11.4071 14.9621 10.8008V7.92805C14.9621 4.64775 12.2783 1.96387 8.99796 1.96387Z" stroke="#01162B" stroke-width="2" stroke-miterlimit="10" stroke-linecap="round"/>
<path id="Vector_2" d="M10.8361 2.25248C10.528 2.16302 10.2099 2.09343 9.88185 2.05367C8.92758 1.93439 8.01307 2.00397 7.1582 2.25248C7.44647 1.5169 8.16217 1 8.99716 1C9.83214 1 10.5478 1.5169 10.8361 2.25248Z" stroke="#01162B" stroke-width="2" stroke-miterlimit="10" stroke-linecap="round" stroke-linejoin="round"/>
<path id="Vector_3" d="M11.9798 18.0176C11.9798 19.6577 10.6378 20.9997 8.9977 20.9997C8.18259 20.9997 7.42713 20.6617 6.89037 20.1249C6.3536 19.5881 6.01562 18.8327 6.01562 18.0176" stroke="#01162B" stroke-width="2" stroke-miterlimit="10"/>
</g>
</svg>
