                <svg
                  xmlns="http://www.w3.org/2000/svg"
                  width="13"
                  height="14"
                  viewBox="0 0 13 14"
                  fill="none"
                >
                  <g opacity="0.5">
                    <path
                      d="M9.241 0C9.6732 0.0848654 10.065 0.250832 10.3946 0.55231C10.8706 0.988272 11.12 1.53203 11.1272 2.1716C11.1399 3.28238 11.133 4.39316 11.1299 5.50393C11.1289 5.85948 10.8873 6.10484 10.5571 6.10176C10.2334 6.09868 10.0024 5.85469 10.0017 5.5012C9.99897 4.39931 10.0031 3.29778 9.99897 2.19589C9.99692 1.68088 9.67457 1.26922 9.18625 1.14637C9.05861 1.1142 8.92652 1.10257 8.79409 1.10257C6.64062 1.10257 4.48716 1.10257 2.3337 1.10257C1.85086 1.10257 1.46349 1.27435 1.23832 1.72605C1.15106 1.90126 1.1319 2.09015 1.1319 2.28384C1.13327 4.36441 1.13258 6.44498 1.13258 8.52555C1.13258 9.60896 1.13053 10.6927 1.13361 11.7761C1.13498 12.3038 1.45151 12.7168 1.94394 12.8421C2.07603 12.8756 2.21257 12.8869 2.34945 12.8869C2.91852 12.8869 3.4876 12.8838 4.05668 12.8889C4.34413 12.8913 4.56929 13.1141 4.59667 13.4063C4.62096 13.6633 4.41872 13.9323 4.1566 13.9877C4.10835 13.998 4.05702 13.9983 4.0074 13.9983C3.38357 13.9987 2.76008 14.0025 2.13625 13.9973C1.07441 13.9881 0.130624 13.1186 0.0231736 12.0598C0.00777458 11.9099 0.00127279 11.7604 0.00127279 11.6101C0.00161499 8.49168 -0.003518 5.37287 0.00469479 2.25441C0.00709018 1.3031 0.447159 0.604324 1.30608 0.179655C1.49121 0.0882874 1.69242 0.0472235 1.89124 0C4.34105 0 6.79119 0 9.241 0Z"
                      fill="#01162B"
                    />
                    <path
                      d="M11.0248 7.41992C11.624 7.45277 12.1496 7.76794 12.4302 8.41333C12.7153 9.06898 12.6099 9.69521 12.1113 10.2068C11.1264 11.2177 10.1183 12.2059 9.12048 13.2041C9.02774 13.2969 8.91584 13.3554 8.79128 13.3899C8.08977 13.5843 7.38895 13.7814 6.68607 13.97C6.30897 14.0713 6.00304 13.8789 5.93973 13.5176C5.92023 13.4057 5.95068 13.3003 5.98217 13.1962C6.1827 12.5296 6.38562 11.8637 6.58718 11.1975C6.62892 11.0596 6.70079 10.9412 6.80345 10.8392C7.7883 9.86014 8.77178 8.87974 9.75663 7.90071C10.0793 7.57939 10.4708 7.42403 11.0248 7.41992ZM10.3948 10.3389C10.3695 10.3084 10.3486 10.2793 10.3237 10.254C10.1344 10.0638 9.94039 9.87794 9.75594 9.68289C9.67689 9.59905 9.6283 9.60452 9.54891 9.68425C8.94322 10.2947 8.33376 10.9015 7.72465 11.5082C7.67537 11.5575 7.63567 11.6098 7.61548 11.6776C7.5337 11.952 7.45157 12.2265 7.36636 12.4999C7.33728 12.5929 7.34857 12.6258 7.45636 12.594C7.74415 12.5095 8.03434 12.4321 8.32384 12.3538C8.38783 12.3366 8.43882 12.3034 8.48501 12.2573C9.0996 11.6427 9.71454 11.0288 10.3291 10.4145C10.351 10.3929 10.3702 10.368 10.3948 10.3389ZM11.4464 9.08985C11.4498 8.85682 11.3222 8.66313 11.1162 8.581C10.9102 8.49888 10.6552 8.56458 10.5057 8.72883C10.4503 8.79009 10.4824 8.82191 10.5238 8.86298C10.6912 9.02928 10.8575 9.19662 11.0245 9.36327C11.2141 9.55319 11.3017 9.53471 11.4064 9.28046C11.4324 9.21784 11.4502 9.15179 11.4464 9.08985Z"
                      fill="#01162B"
                    />
                    <path
                      d="M5.5677 4.38105C4.63041 4.38105 3.69313 4.38378 2.75584 4.37968C2.30551 4.37762 2.04852 3.92181 2.2754 3.53581C2.3695 3.37566 2.51425 3.2908 2.69801 3.27164C2.72505 3.2689 2.75242 3.26958 2.7798 3.26958C4.63623 3.26958 6.49232 3.27027 8.34875 3.26856C8.56091 3.26821 8.73099 3.34179 8.84665 3.52213C8.96129 3.70075 8.97669 3.88794 8.87574 4.07854C8.77342 4.27188 8.61293 4.37865 8.39289 4.38002C7.91518 4.3831 7.43747 4.38139 6.95976 4.38139C6.49574 4.38105 6.03172 4.38105 5.5677 4.38105Z"
                      fill="#01162B"
                    />
                    <path
                      d="M5.56525 6.56633C4.63242 6.56633 3.69993 6.56702 2.76709 6.56565C2.48033 6.56531 2.27775 6.40687 2.20794 6.13824C2.12581 5.82239 2.35987 5.48772 2.68462 5.45692C2.7161 5.45384 2.74827 5.45419 2.78009 5.45419C4.63653 5.45419 6.49262 5.45385 8.34905 5.45453C8.61733 5.45453 8.80246 5.57498 8.89691 5.8046C9.04542 6.16596 8.7874 6.56052 8.3908 6.56428C7.80837 6.5701 7.22595 6.56599 6.64353 6.56633C6.28422 6.56668 5.92456 6.56668 5.56525 6.56633Z"
                      fill="#01162B"
                    />
                    <path
                      d="M4.4509 8.75205C3.87738 8.75205 3.30419 8.75547 2.73067 8.75068C2.44253 8.74829 2.21771 8.52723 2.18965 8.23567C2.16467 7.97458 2.36041 7.71108 2.62664 7.65325C2.67934 7.64161 2.73511 7.64127 2.78952 7.64127C3.90441 7.64059 5.01929 7.64025 6.13418 7.64127C6.4822 7.64162 6.73269 7.87808 6.73098 8.19906C6.72927 8.52038 6.4798 8.75171 6.13007 8.75274C5.57024 8.75411 5.01074 8.75308 4.4509 8.75308C4.4509 8.75239 4.4509 8.75239 4.4509 8.75205Z"
                      fill="#01162B"
                    />
                  </g>
                </svg>