<svg width="33" height="22" viewBox="0 0 33 22" fill="none" xmlns="http://www.w3.org/2000/svg">
<g id="Video views">
<path id="Vector" d="M5.44444 1V21M5.44444 1L9.88889 5.44444M5.44444 1L1 5.44444" stroke="#01162B" stroke-width="2" stroke-linecap="round" stroke-linejoin="round"/>
<g id="Group 521">
<path id="Vector_2" d="M25.7503 10.9999C25.7503 12.4201 24.599 13.5713 23.1788 13.5713C21.7587 13.5713 20.6074 12.4201 20.6074 10.9999C20.6074 9.5797 21.7587 8.42847 23.1788 8.42847C24.599 8.42847 25.7503 9.5797 25.7503 10.9999Z" stroke="#01162B" stroke-width="1.8" stroke-linecap="round" stroke-linejoin="round"/>
<path id="Vector_3" d="M23.179 5C19.3411 5 16.0922 7.52247 15 11C16.0922 14.4775 19.3411 17 23.179 17C27.017 17 30.2658 14.4775 31.3581 11C30.2658 7.52249 27.017 5 23.179 5Z" stroke="#01162B" stroke-width="1.8" stroke-linecap="round" stroke-linejoin="round"/>
</g>
</g>
</svg>
