<svg width="26" height="24" viewBox="0 0 26 24" fill="none" xmlns="http://www.w3.org/2000/svg">
<path d="M25.4916 9.26089C25.0097 11.8181 23.8043 13.7715 22.026 15.6382C20.2267 17.5271 18.1929 19.1905 16.223 20.8924C15.7029 21.3417 15.1828 21.7905 14.6626 22.2392C14.2347 22.6089 13.8043 23.022 13.198 22.9991C12.6353 22.978 12.2475 22.5661 11.8464 22.2187C11.3143 21.7579 10.7786 21.3013 10.2435 20.8442C8.26772 19.1585 6.27037 17.4776 4.46035 15.608C2.78382 13.8759 1.32455 11.7861 1.05042 9.32C0.791247 6.98838 1.53405 4.54338 3.21417 2.89026C4.84103 1.29082 7.31064 0.608704 9.5139 1.22448C10.6865 1.55196 11.7243 2.22865 12.5581 3.11462C12.7 3.26539 12.9424 3.70446 13.1285 3.77924C13.3374 3.86368 13.2453 3.85162 13.4559 3.6936C13.8911 3.36732 14.2179 2.81849 14.6477 2.46025C16.5193 0.900005 19.2278 0.558646 21.4322 1.59358C23.8803 2.7431 25.054 5.00235 25.4922 7.5746V9.26029L25.4916 9.26089ZM7.87927 2.491C7.75237 2.50246 7.62608 2.51875 7.49919 2.52417C6.64446 2.55916 5.84959 2.80703 5.13492 3.27082C3.26146 4.48548 2.51387 6.30747 2.48694 8.46961C2.46898 9.91647 2.97056 11.2174 3.76723 12.4103C4.7309 13.8542 5.95194 15.0622 7.22445 16.2183C9.14041 17.9589 11.124 19.6217 13.0711 21.3261C13.2165 21.4533 13.2967 21.4539 13.4422 21.3261C15.1139 19.8647 16.797 18.4167 18.4676 16.9535C19.8688 15.7262 21.2323 14.4591 22.3618 12.9616C23.5954 11.3265 24.2633 9.52505 23.9527 7.44131C23.6498 5.41186 22.6832 3.82628 20.7894 2.96384C19.2595 2.26725 17.7098 2.30585 16.2314 3.17433C15.3306 3.70385 14.6728 4.48066 14.1132 5.35456C13.6373 6.09819 12.8843 6.09638 12.4037 5.35637C12.1415 4.95289 11.8632 4.56268 11.5376 4.20866C10.55 3.13633 9.35469 2.5103 7.87986 2.4904L7.87927 2.491Z" fill="#01162B" stroke="black" stroke-width="0.2"/>
</svg>
