<svg width="18" height="18" viewBox="0 0 18 18" fill="none" xmlns="http://www.w3.org/2000/svg">
<path d="M1 9.16312C1 7.33239 1 6.41702 1.41536 5.65819C1.83072 4.89937 2.58956 4.42841 4.10722 3.4865L5.70722 2.4935C7.31151 1.49783 8.11368 1 9 1C9.88632 1 10.6885 1.49783 12.2928 2.4935L13.8928 3.4865C15.4105 4.42841 16.1693 4.89937 16.5846 5.65819C17 6.41702 17 7.33239 17 9.16312V10.38C17 13.5006 17 15.061 16.0627 16.0305C15.1255 17 13.617 17 10.6 17H7.4C4.38301 17 2.87452 17 1.93726 16.0305C1 15.061 1 13.5006 1 10.38V9.16312Z" stroke="#FFBD00" stroke-width="1.6"/>
</svg>
