<svg width="17" height="14" viewBox="0 0 17 14" fill="none" xmlns="http://www.w3.org/2000/svg">
<g id="USA">
<g id="Group">
<path id="Vector" d="M17 0H0V2H17V0Z" fill="#DC4437"/>
<path id="Vector_2" d="M17 4H0V6H17V4Z" fill="#DC4437"/>
<path id="Vector_3" d="M16 3H0V4H16V3Z" fill="#DC4437"/>
<path id="Vector_4" d="M17 12H0V14H17V12Z" fill="#DC4437"/>
<path id="Vector_5" d="M17 8H0V10H17V8Z" fill="#DC4437"/>
<path id="Vector_6" d="M17 2H1V4H17V2Z" fill="white"/>
<path id="Vector_7" d="M17 6H1V8H17V6Z" fill="white"/>
<path id="Vector_8" d="M17 10H0V12H17V10Z" fill="white"/>
<path id="Vector_9" d="M9 0H0V8H9V0Z" fill="#2A66B7"/>
<g id="Group 540">
<path id="Vector_10" d="M1.89423 0L2.16846 0.584231L2.78846 0.679615L2.33538 1.14462L2.44269 1.78846L1.89423 1.47846L1.34577 1.78846L1.45308 1.14462L1 0.679615L1.62 0.584231L1.89423 0Z" fill="white"/>
<path id="Vector_11" d="M4.33759 0L4.61182 0.584231L5.23182 0.679615L4.79067 1.14462L4.88605 1.78846L4.33759 1.47846L3.78913 1.78846L3.88451 1.14462L3.44336 0.679615L4.06336 0.584231L4.33759 0Z" fill="white"/>
<path id="Vector_12" d="M6.7829 0L7.05713 0.584231L7.67713 0.679615L7.22406 1.14462L7.33136 1.78846L6.7829 1.47846L6.23444 1.78846L6.34175 1.14462L5.88867 0.679615L6.50867 0.584231L6.7829 0Z" fill="white"/>
<path id="Vector_13" d="M3.14618 2.38477L3.42041 2.969L4.04041 3.06438L3.59926 3.52938L3.69465 4.17323L3.14618 3.86323L2.59772 4.17323L2.69311 3.52938L2.25195 3.06438L2.87195 2.969L3.14618 2.38477Z" fill="white"/>
<path id="Vector_14" d="M5.58954 2.38477L5.86377 2.969L6.48377 3.06438L6.0307 3.52938L6.138 4.17323L5.58954 3.86323L5.04108 4.17323L5.14839 3.52938L4.69531 3.06438L5.31531 2.969L5.58954 2.38477Z" fill="white"/>
<path id="Vector_15" d="M1.89423 4.91211L2.16846 5.49634L2.78846 5.59172L2.33538 6.0448L2.44269 6.70057L1.89423 6.39057L1.34577 6.70057L1.45308 6.0448L1 5.59172L1.62 5.49634L1.89423 4.91211Z" fill="white"/>
<path id="Vector_16" d="M4.33759 4.91211L4.61182 5.49634L5.23182 5.59172L4.79067 6.0448L4.88605 6.70057L4.33759 6.39057L3.78913 6.70057L3.88451 6.0448L3.44336 5.59172L4.06336 5.49634L4.33759 4.91211Z" fill="white"/>
<path id="Vector_17" d="M6.7829 4.91211L7.05713 5.49634L7.67713 5.59172L7.22406 6.0448L7.33136 6.70057L6.7829 6.39057L6.23444 6.70057L6.34175 6.0448L5.88867 5.59172L6.50867 5.49634L6.7829 4.91211Z" fill="white"/>
</g>
</g>
</g>
</svg>
