<svg width="25" height="20" viewBox="0 0 25 20" fill="none" xmlns="http://www.w3.org/2000/svg">
<g id="Group 507">
<path id="Vector" d="M8.24659 0.00107823C9.01948 0.00136298 9.78471 0.154181 10.4984 0.450774C11.2121 0.747366 11.8603 1.1819 12.4058 1.72947C12.9512 2.27704 13.3832 2.92687 13.6771 3.64173C13.9709 4.35658 14.1208 5.1224 14.1181 5.89528C14.1137 9.03157 11.6249 11.7844 8.23046 11.7829C4.81698 11.7829 2.32892 9.00297 2.34579 5.86522C2.36412 2.46274 5.18363 -0.059785 8.24659 0.00107823ZM8.21579 9.36302C10.1524 9.36962 11.7356 7.82677 11.7209 5.89162C11.7041 3.89779 10.1421 2.41434 8.25466 2.40041C6.43829 2.38648 4.75392 3.79807 4.75465 5.87988C4.75245 8.15895 6.66048 9.41728 8.21579 9.36302Z" fill="#01162B"/>
<path id="Vector_2" d="M8.08361 12.8799C10.3201 12.9319 12.2795 13.3697 14.0064 14.5753C15.2435 15.4391 16.133 16.5551 16.3962 18.0885C16.4505 18.4023 16.5018 18.7198 16.427 19.0417C16.3683 19.3075 16.2222 19.5458 16.012 19.7186C15.8018 19.8915 15.5397 19.9888 15.2677 19.995C14.9905 19.9959 14.7217 19.9006 14.5069 19.7255C14.2922 19.5503 14.1448 19.3061 14.09 19.0344C14.0453 18.8144 14.0482 18.5776 13.9998 18.3554C13.8414 17.636 13.3816 17.1176 12.8207 16.6842C11.8535 15.937 10.7315 15.5564 9.53699 15.3973C7.97068 15.189 6.4337 15.3137 4.95978 15.9274C4.25069 16.2208 3.60613 16.6175 3.08915 17.196C2.69391 17.636 2.43432 18.1354 2.41306 18.7484C2.39473 19.2984 2.14321 19.7164 1.61084 19.9173C1.1452 20.0933 0.72502 19.9818 0.370106 19.646C0.045991 19.338 -0.0295369 18.9427 0.00932761 18.5108C0.155986 16.8243 1.04767 15.5879 2.37493 14.631C3.70219 13.674 5.21423 13.1739 6.82968 12.9833C7.30045 12.929 7.77489 12.9048 8.08361 12.8799Z" fill="#01162B"/>
<path id="Vector_3" d="M17.4029 10.5594C17.7696 10.5594 18.1362 10.5521 18.5029 10.5631C18.6965 10.5689 18.7566 10.4934 18.7544 10.305C18.7471 9.6274 18.7493 8.94911 18.7544 8.27154C18.7581 7.56172 19.245 7.04768 19.9159 7.04108C20.6228 7.03448 21.1391 7.54485 21.1464 8.26861C21.1523 8.92857 21.1567 9.58854 21.1464 10.2485C21.142 10.4839 21.2065 10.5719 21.4536 10.566C22.1136 10.5506 22.7736 10.5579 23.4284 10.5616C24.1228 10.5616 24.6537 11.0749 24.6618 11.7312C24.6648 11.8922 24.6356 12.0521 24.5757 12.2015C24.5158 12.3509 24.4265 12.4868 24.3131 12.6011C24.1997 12.7153 24.0645 12.8057 23.9156 12.8667C23.7666 12.9278 23.607 12.9583 23.446 12.9565C22.7787 12.9668 22.1114 12.9668 21.4441 12.9565C21.2146 12.9529 21.1435 13.0299 21.1471 13.2579C21.1574 13.9355 21.1603 14.6138 21.1471 15.2913C21.1455 15.5813 21.0387 15.8607 20.8466 16.0779C20.6544 16.295 20.39 16.4349 20.1024 16.4718C19.8149 16.5086 19.5237 16.4398 19.283 16.2781C19.0424 16.1164 18.8686 15.8729 18.794 15.5927C18.7642 15.4679 18.7521 15.3396 18.7581 15.2114C18.7581 14.5705 18.7478 13.9289 18.7625 13.288C18.7683 13.0409 18.7016 12.9492 18.4413 12.9551C17.7747 12.9719 17.1067 12.9675 16.4394 12.9551C16.1715 12.9562 15.9109 12.8678 15.6989 12.7039C15.487 12.54 15.3359 12.3099 15.2697 12.0503C15.2035 11.7907 15.2259 11.5164 15.3334 11.271C15.4409 11.0256 15.6273 10.8232 15.863 10.6958C16.0236 10.6061 16.2049 10.5601 16.3888 10.5623C16.7268 10.5623 17.0649 10.5623 17.4029 10.5623V10.5594Z" fill="#01162B"/>
</g>
</svg>
