<svg width="18" height="20" viewBox="0 0 18 20" fill="none" xmlns="http://www.w3.org/2000/svg">
<path d="M16.3915 14.0638C15.2981 12.7256 14.5262 12.0444 14.5262 8.35503C14.5262 4.97651 12.801 3.77284 11.381 3.18825C11.1924 3.11076 11.0148 2.93279 10.9573 2.73906C10.7083 1.89134 10.01 1.14453 9.08181 1.14453C8.15362 1.14453 7.45492 1.89177 7.2084 2.73991C7.15092 2.93577 6.97337 3.11076 6.78475 3.18825C5.36309 3.77369 3.63955 4.9731 3.63955 8.35503C3.63742 12.0444 2.86549 12.7256 1.7721 14.0638C1.31907 14.6182 1.71589 15.4506 2.50826 15.4506H15.6596C16.4477 15.4506 16.842 14.6156 16.3915 14.0638Z" stroke="#34C38F" stroke-width="1.36248" stroke-linecap="round" stroke-linejoin="round"/>
<path d="M11.8069 15.4512V16.1324C11.8069 16.8551 11.5198 17.5482 11.0087 18.0592C10.4977 18.5703 9.8046 18.8574 9.0819 18.8574C8.35919 18.8574 7.66609 18.5703 7.15506 18.0592C6.64403 17.5482 6.35693 16.8551 6.35693 16.1324V15.4512" stroke="#34C38F" stroke-width="1.36248" stroke-linecap="round" stroke-linejoin="round"/>
</svg>
