<svg width="20" height="14" viewBox="0 0 20 14" fill="none" xmlns="http://www.w3.org/2000/svg">
<path d="M11.24 12.7996H2.86182C1.83782 12.7996 1 11.9618 1 10.9378V4.42139C1 3.39739 1.83782 2.55957 2.86182 2.55957H11.24C12.264 2.55957 13.1018 3.39739 13.1018 4.42139V10.9378C13.1018 11.9618 12.264 12.7996 11.24 12.7996Z" stroke="#34C38F" stroke-width="1.024" stroke-miterlimit="10" stroke-linecap="round" stroke-linejoin="round"/>
<path d="M6.12012 5.35254H3.32739V8.14527H6.12012V5.35254Z" stroke="#34C38F" stroke-width="1.024" stroke-miterlimit="10" stroke-linecap="round" stroke-linejoin="round"/>
<path d="M7.98193 8.14551H10.7747" stroke="#34C38F" stroke-width="1.024" stroke-miterlimit="10" stroke-linecap="round" stroke-linejoin="round"/>
<path d="M3.32739 10.0078H10.7747" stroke="#34C38F" stroke-width="1.024" stroke-miterlimit="10" stroke-linecap="round" stroke-linejoin="round"/>
<path d="M15.4233 1.80142C15.611 1.80142 15.7988 1.79767 15.9865 1.8033C16.0856 1.8063 16.1164 1.76763 16.1153 1.67114C16.1115 1.32423 16.1126 0.976942 16.1153 0.63003C16.1171 0.266599 16.3664 0.0034114 16.71 3.23928e-05C17.0719 -0.00334662 17.3362 0.257963 17.34 0.628528C17.343 0.966429 17.3452 1.30433 17.34 1.64223C17.3377 1.76275 17.3707 1.8078 17.4973 1.8048C17.8352 1.79692 18.1731 1.80067 18.5083 1.80255C18.8639 1.80255 19.1357 2.06536 19.1398 2.40138C19.1414 2.48379 19.1264 2.56567 19.0957 2.64217C19.0651 2.71867 19.0194 2.78824 18.9613 2.84674C18.9033 2.90525 18.8341 2.95151 18.7578 2.98277C18.6815 3.01403 18.5998 3.02967 18.5174 3.02875C18.1757 3.03401 17.834 3.03401 17.4924 3.02875C17.3749 3.02687 17.3385 3.0663 17.3403 3.18306C17.3456 3.52997 17.3471 3.87726 17.3403 4.22417C17.3395 4.37261 17.2848 4.5157 17.1865 4.62686C17.0881 4.73802 16.9527 4.80969 16.8055 4.82855C16.6582 4.84741 16.5091 4.81217 16.3859 4.72939C16.2627 4.64661 16.1737 4.52192 16.1355 4.37848C16.1203 4.31459 16.1141 4.24886 16.1171 4.18325C16.1171 3.85511 16.1119 3.52659 16.1194 3.19845C16.1224 3.07193 16.0882 3.025 15.9549 3.028C15.6137 3.03664 15.2716 3.03438 14.93 3.028C14.7928 3.02858 14.6594 2.98331 14.5509 2.89939C14.4424 2.81546 14.365 2.69768 14.3311 2.56476C14.2972 2.43185 14.3087 2.29141 14.3637 2.16576C14.4187 2.04011 14.5142 1.93645 14.6349 1.87125C14.7171 1.82531 14.8099 1.80175 14.9041 1.80292C15.0772 1.80292 15.2502 1.80292 15.4233 1.80292V1.80142Z" fill="#34C38F"/>
</svg>
