<svg width="22" height="22" viewBox="0 0 22 22" fill="none" xmlns="http://www.w3.org/2000/svg">
<path d="M7.33325 9.16667V16.5C7.33325 17.0062 7.74366 17.4167 8.24992 17.4167C8.75618 17.4167 9.16659 17.0062 9.16659 16.5V9.16667C9.16659 8.66041 8.75618 8.25 8.24992 8.25C7.74366 8.25 7.33325 8.66041 7.33325 9.16667Z" fill="#01162B"/>
<path d="M11.9167 8.25C12.4229 8.25 12.8333 8.66041 12.8333 9.16667V16.5C12.8333 17.0062 12.4229 17.4167 11.9167 17.4167C11.4104 17.4167 11 17.0062 11 16.5V9.16667C11 8.66041 11.4104 8.25 11.9167 8.25Z" fill="#01162B"/>
<path d="M13.75 3.66667H19.25C19.7562 3.66667 20.1667 4.07708 20.1667 4.58333C20.1667 5.08959 19.7562 5.5 19.25 5.5H18.2371L16.8568 17.9229C16.5988 20.244 14.637 22 12.3015 22H7.86515C5.52972 22 3.56776 20.244 3.30984 17.9229L1.92953 5.5H0.916667C0.41041 5.5 0 5.08959 0 4.58333C0 4.07708 0.41041 3.66667 0.916667 3.66667H6.41667C6.41667 1.64162 8.05829 0 10.0833 0C12.1084 0 13.75 1.64162 13.75 3.66667ZM10.0833 1.83333C9.07082 1.83333 8.25 2.65415 8.25 3.66667H11.9167C11.9167 2.65415 11.0959 1.83333 10.0833 1.83333ZM3.77416 5.5L5.13196 17.7203C5.28671 19.1131 6.46388 20.1667 7.86515 20.1667H12.3015C13.7028 20.1667 14.8799 19.1131 15.0346 17.7203L16.3926 5.5H3.77416Z" fill="#01162B"/>
</svg>
