<svg width="22" height="22" viewBox="0 0 24 25" fill="none" xmlns="http://www.w3.org/2000/svg">
<path d="M13.5933 10.1982L12.881 9.66344C11.8659 8.90122 10.4163 9.62555 10.4163 10.895V14.1056C10.4163 15.3751 11.8659 16.0994 12.881 15.3372L13.5933 14.8024L15.021 13.7329C15.8432 13.1169 15.8432 11.8838 15.021 11.2678L13.5933 10.1982ZM13.5933 10.1982L12.881 9.66344C11.8659 8.90122 10.4163 9.62555 10.4163 10.895V14.1056C10.4163 15.3751 11.8659 16.0994 12.881 15.3372L13.5933 14.8024L15.021 13.7329C15.8432 13.1169 15.8432 11.8838 15.021 11.2678L13.5933 10.1982ZM13.5933 10.1982L12.881 9.66344C11.8659 8.90122 10.4163 9.62555 10.4163 10.895V14.1056C10.4163 15.3751 11.8659 16.0994 12.881 15.3372L13.5933 14.8024L15.021 13.7329C15.8432 13.1169 15.8432 11.8838 15.021 11.2678L13.5933 10.1982ZM10.7863 4.35129C11.1669 4.27171 11.4579 3.94782 11.4579 3.55897V2.98621C11.4579 2.53079 11.0639 2.17243 10.616 2.25466C9.14258 2.52512 7.77959 3.10772 6.59375 3.92785C6.21985 4.18644 6.1936 4.71712 6.51393 5.0397L6.91565 5.44425C7.18963 5.72016 7.62434 5.74513 7.94961 5.5321C8.80184 4.97394 9.75793 4.56631 10.7863 4.35129ZM5.53136 7.95035C5.7444 7.62507 5.71943 7.19036 5.44352 6.91638L5.03897 6.51466C4.71638 6.19433 4.18571 6.22058 3.92712 6.59448C3.10699 7.78032 2.52438 9.14332 2.25393 10.6167C2.1717 11.0646 2.53005 11.4587 2.98548 11.4587H3.55824C3.94709 11.4587 4.27098 11.1677 4.35056 10.7871C4.56558 9.75866 4.97321 8.80257 5.53136 7.95035ZM4.35057 14.2136C4.27098 13.833 3.94709 13.542 3.55824 13.542H2.98548C2.53005 13.542 2.1717 13.936 2.25393 14.3839C2.5242 15.8563 3.10618 17.2184 3.92541 18.4037C4.18451 18.7786 4.71677 18.804 5.03899 18.4818L5.44478 18.076C5.71991 17.8008 5.74312 17.3657 5.52919 17.0407C4.97216 16.1945 4.56531 15.2405 4.35057 14.2136ZM6.51393 19.961C6.1936 20.2835 6.21986 20.8142 6.59393 21.0726C7.78059 21.8922 9.14729 22.4746 10.6157 22.7454C11.0637 22.828 11.4579 22.4696 11.4579 22.014V21.4417C11.4579 21.0528 11.1669 20.7289 10.7863 20.6494C9.75793 20.4343 8.80184 20.0267 7.94961 19.4686C7.62434 19.2555 7.18963 19.2805 6.91565 19.5564L6.51393 19.961ZM22.9163 12.5003C22.9163 17.5822 19.2662 21.826 14.4399 22.7404C13.9906 22.8255 13.5933 22.4667 13.5933 22.0095V21.4354C13.5933 21.0492 13.8807 20.7266 14.2581 20.6449C18.0142 19.832 20.8329 16.4871 20.8329 12.5003C20.8329 8.51353 18.0142 5.16861 14.2581 4.35571C13.8807 4.27403 13.5933 3.95141 13.5933 3.56527V2.99119C13.5933 2.53398 13.9906 2.17516 14.4399 2.26027C19.2662 3.17466 22.9163 7.41848 22.9163 12.5003Z" fill="#01162B"/>
</svg>
