<?xml version="1.0" standalone="no"?>
<!DOCTYPE svg PUBLIC "-//W3C//DTD SVG 20010904//EN"
 "http://www.w3.org/TR/2001/REC-SVG-20010904/DTD/svg10.dtd">
<svg version="1.0" xmlns="http://www.w3.org/2000/svg"
 width="1024.000000pt" height="1024.000000pt" viewBox="0 0 1024.000000 1024.000000"
 preserveAspectRatio="xMidYMid meet">

<g transform="translate(0.000000,1024.000000) scale(0.100000,-0.100000)"
fill="#000000" stroke="none">
<path d="M1320 10229 c-316 -37 -636 -192 -868 -421 -221 -218 -355 -463 -424
-778 l-23 -105 0 -3805 0 -3805 22 -101 c34 -150 67 -246 133 -379 206 -418
577 -703 1050 -807 l105 -23 3795 0 c3665 0 3798 1 3895 19 219 41 457 144
626 270 105 79 240 216 319 321 124 167 226 404 266 620 18 97 19 230 19 3895
l0 3795 -22 101 c-66 297 -201 554 -394 752 -223 227 -464 361 -784 434 l-100
23 -3770 1 c-2081 1 -3804 -2 -3845 -7z m5031 -1683 c116 -77 133 -240 34
-336 -35 -34 -35 -35 -35 -122 l0 -88 -115 0 -115 0 0 86 0 86 -40 45 c-58 66
-73 133 -48 217 15 50 83 121 130 135 55 17 144 6 189 -23z m-3380 -651 c417
-73 769 -371 908 -767 71 -205 66 -20 66 -2333 0 -2261 3 -2136 -56 -2318
-180 -553 -738 -894 -1309 -802 -436 71 -798 380 -935 800 -57 176 -55 80 -55
2320 0 1327 4 2082 10 2122 80 493 467 889 956 977 105 19 311 20 415 1z
m4459 -17 c501 -138 842 -538 890 -1044 50 -536 -284 -1048 -796 -1220 -183
-61 -87 -57 -1649 -61 -1070 -3 -1440 -1 -1470 8 -57 16 -91 43 -122 97 l-28
47 0 575 c0 511 2 585 18 662 101 498 469 863 959 953 58 11 278 13 1088 12
l1015 -2 95 -27z m1124 -965 c48 -33 96 -119 96 -172 0 -60 -19 -110 -58 -153
-39 -43 -101 -77 -140 -78 -23 0 -24 2 -17 62 10 80 9 259 0 328 l-7 53 43 -6
c23 -3 61 -18 83 -34z m-2528 -1798 c606 -106 1036 -667 975 -1272 -56 -551
-465 -978 -1013 -1059 -153 -22 -673 -15 -788 11 -365 82 -658 308 -820 632
-81 164 -120 333 -120 529 0 193 36 346 121 519 165 336 479 572 850 639 112
21 678 21 795 1z"/>
<path d="M2543 7606 c-370 -98 -634 -408 -673 -791 -8 -78 -10 -693 -8 -2110
l3 -2000 23 -83 c91 -340 345 -586 690 -668 102 -25 285 -23 396 5 177 43 329
132 457 269 83 89 136 172 178 282 65 167 61 24 61 2268 0 1820 -2 2049 -16
2123 -62 327 -298 590 -624 695 -74 23 -105 27 -240 31 -139 3 -164 1 -247
-21z m240 -764 c-11 -26 -14 -55 -10 -95 14 -152 164 -235 310 -172 15 6 17 1
17 -39 0 -107 -80 -230 -185 -284 -72 -37 -188 -42 -266 -13 -79 30 -141 88
-181 169 -28 57 -33 76 -32 142 0 130 68 241 185 301 43 22 129 38 161 31 15
-4 15 -7 1 -40z"/>
<path d="M5340 7630 c-393 -49 -684 -307 -786 -700 -15 -56 -18 -137 -21 -582
l-4 -518 1361 0 c1493 0 1427 -2 1587 60 214 83 415 277 501 483 45 111 64
197 69 323 9 195 -36 364 -139 521 -128 196 -311 329 -537 391 l-96 27 -935 1
c-514 1 -964 -2 -1000 -6z m287 -595 c258 -116 263 -481 8 -605 -72 -36 -180
-39 -259 -9 -72 27 -147 94 -184 164 -24 44 -27 62 -27 145 0 89 2 99 34 158
50 92 121 146 221 168 69 16 140 9 207 -21z m1506 -3 c74 -32 148 -111 173
-184 77 -222 -81 -448 -311 -448 -129 0 -245 72 -302 189 -24 48 -28 68 -28
141 0 71 4 94 26 141 80 169 268 238 442 161z"/>
<path d="M5330 4849 c-237 -27 -468 -158 -612 -348 -64 -85 -133 -225 -159
-326 -32 -118 -32 -328 -1 -444 93 -343 360 -598 699 -666 68 -14 134 -16 410
-13 305 4 333 6 403 27 548 164 815 771 563 1276 -137 275 -405 460 -715 494
-112 13 -478 12 -588 0z m756 -414 c68 -30 124 -82 159 -147 37 -68 47 -188
21 -264 -57 -173 -259 -268 -429 -204 l-59 22 30 32 c91 95 92 215 3 306 -39
40 -55 50 -106 61 -33 7 -62 14 -64 15 -8 7 51 94 84 123 103 90 240 111 361
56z"/>
</g>
</svg>
