<?xml version="1.0" standalone="no"?>
<!DOCTYPE svg PUBLIC "-//W3C//DTD SVG 20010904//EN"
 "http://www.w3.org/TR/2001/REC-SVG-20010904/DTD/svg10.dtd">
<svg version="1.0" xmlns="http://www.w3.org/2000/svg"
 width="3240.000000pt" height="3240.000000pt" viewBox="0 0 3240.000000 3240.000000"
 preserveAspectRatio="xMidYMid meet">

<g transform="translate(0.000000,3240.000000) scale(0.100000,-0.100000)"
fill="#000000" stroke="none">
<path d="M11205 28323 c-551 -36 -1049 -117 -1555 -254 -1968 -533 -3648
-1854 -4644 -3653 -444 -801 -747 -1717 -870 -2629 -25 -179 -38 -310 -56
-557 -6 -73 -9 -1362 -10 -3105 l0 -2980 3251 -889 3250 -890 2320 2320 c1276
1275 2334 2338 2350 2362 63 89 89 214 69 329 -28 169 -140 307 -298 367 l-57
21 -1965 5 -1965 5 -110 22 c-312 63 -579 179 -823 360 -109 80 -335 311 -412
421 -243 346 -360 713 -360 1127 0 529 198 1003 576 1378 306 304 716 500
1146 546 136 15 9640 15 9776 0 382 -41 754 -195 1052 -436 97 -78 249 -236
327 -338 280 -370 415 -822 382 -1282 -27 -390 -164 -748 -406 -1063 -42 -54
-1054 -1074 -2783 -2805 -1755 -1756 -2727 -2736 -2743 -2765 -81 -144 -76
-342 12 -479 75 -116 196 -193 332 -211 98 -12 3662 -13 4031 0 413 14 726 47
1113 115 1495 265 2886 992 3975 2075 1315 1307 2093 3027 2211 4888 15 241 6
900 -15 1117 -180 1811 -929 3409 -2191 4670 -1182 1183 -2707 1937 -4357
2155 -446 59 1 54 -5488 55 -2758 1 -5037 0 -5065 -2z"/>
</g>
</svg>
