<svg xmlns="http://www.w3.org/2000/svg" width="11" height="12" viewBox="0 0 11 12" fill="none">
<path d="M8.14118 0C7.77827 0.0699081 7.44769 0.207611 7.15945 0.4483C6.56413 0.945864 6.30939 1.78569 6.54366 2.53216C6.57739 2.63936 6.55855 2.68957 6.46572 2.74704C5.47399 3.36213 4.48434 3.98098 3.49633 4.60194C3.42072 4.64956 3.38047 4.63502 3.31999 4.57824C2.76445 4.05699 2.11329 3.8855 1.38909 4.11024C0.665585 4.33474 0.212405 4.84263 0.0458363 5.58815C-0.199597 6.68579 0.56904 7.79188 1.67175 7.94507C2.30662 8.03327 2.85727 7.85241 3.32092 7.40786C3.38187 7.34945 3.42305 7.33889 3.49749 7.38581C4.48248 8.00466 5.46887 8.62116 6.45712 9.23484C6.54924 9.29208 6.57902 9.33994 6.54482 9.45653C6.19516 10.6443 6.96613 11.84 8.19004 11.9856C9.33508 12.1217 10.2396 11.2713 10.3554 10.2769C10.4973 9.0589 9.56702 8.01897 8.35428 8.05181C7.86039 8.06518 7.42629 8.24769 7.07035 8.59887C7.00033 8.66807 6.95217 8.67886 6.86516 8.62397C5.88389 8.0063 4.90077 7.39238 3.91554 6.78127C3.82481 6.72497 3.79527 6.67547 3.83063 6.56709C3.95602 6.18143 3.95183 5.79154 3.82737 5.40588C3.79759 5.31368 3.81807 5.26747 3.89879 5.21727C4.89355 4.59959 5.88645 3.97887 6.87819 3.35627C6.95054 3.31099 6.99311 3.31545 7.05593 3.3748C7.61752 3.90427 8.27588 4.07622 9.0073 3.83952C9.7415 3.60165 10.19 3.07593 10.3422 2.31258C10.5509 1.26631 9.83479 0.225675 8.77675 0.0194712C8.75046 0.0143099 8.72464 0.00656891 8.69859 0C8.51271 0 8.32706 0 8.14118 0ZM0.740262 6.0015C0.738401 5.32283 1.28161 4.76427 1.94789 4.76029C2.62859 4.75606 3.19273 5.31978 3.18669 5.99821C3.18087 6.66937 2.63394 7.22418 1.97441 7.2277C1.2951 7.23098 0.742123 6.68157 0.740262 6.0015ZM8.41895 0.731685C9.08919 0.732154 9.63472 1.27992 9.6417 1.95976C9.64868 2.62834 9.07662 3.20519 8.41337 3.19863C7.73988 3.19206 7.19574 2.64101 7.19528 1.96562C7.19458 1.28015 7.73895 0.731215 8.41895 0.731685ZM7.19504 10.0254C7.19481 9.34486 7.75128 8.78373 8.42151 8.78912C9.08546 8.79428 9.64519 9.36175 9.6417 10.0254C9.63798 10.7031 9.09128 11.2547 8.42175 11.2561C7.74105 11.2575 7.19551 10.7102 7.19504 10.0254Z" fill="#01162B" fill-opacity="0.5"/>
</svg>