<svg xmlns="http://www.w3.org/2000/svg" width="14" height="16" viewBox="0 0 10 10" fill="none">
<path fill-rule="evenodd" clip-rule="evenodd" d="M6.57467 0.482869C6.18414 0.0923447 5.55098 0.092345 5.16045 0.482869L4.91089 0.732436C4.52036 1.12296 4.52036 1.75613 4.91089 2.14665L5.03567 2.27143L3.95433 3.35277C2.92322 3.01925 1.75778 3.2165 0.88554 3.94454L2.95594 6.01494L0.668244 8.30264C0.553385 8.4175 0.553385 8.60372 0.668245 8.71858C0.783105 8.83344 0.96933 8.83344 1.08419 8.71858L3.37189 6.43089L5.44228 8.50128C6.17032 7.62904 6.36758 6.46361 6.03406 5.4325L7.11539 4.35116L7.24018 4.47594C7.6307 4.86647 8.26387 4.86647 8.65439 4.47594L8.90396 4.22638C9.29448 3.83585 9.29448 3.20269 8.90396 2.81216L6.57467 0.482869Z" fill="#F7931A"/>
</svg>