<svg xmlns="http://www.w3.org/2000/svg" width="15" height="15" viewBox="0 0 15 15" fill="none">
  <circle cx="7.5" cy="7.5" r="7.5" fill="#01162B"/>
  <path d="M10.0119 5.97563C10.0119 6.29563 9.94792 6.58363 9.81992 6.83963C9.69192 7.08763 9.54392 7.27562 9.37592 7.40363C9.21592 7.52362 9.03192 7.66762 8.82392 7.83563C8.61592 7.99563 8.46392 8.13962 8.36792 8.26762C8.24792 8.45162 8.18792 8.65163 8.18792 8.86763C8.18792 9.09963 8.11592 9.29163 7.97192 9.44363C7.82792 9.60363 7.62792 9.68363 7.37192 9.68363C7.12392 9.68363 6.92392 9.60762 6.77192 9.45562C6.62792 9.29562 6.55592 9.09963 6.55592 8.86763C6.55592 8.57163 6.61992 8.29962 6.74792 8.05162C6.87592 7.80363 7.03192 7.59962 7.21592 7.43962C7.40792 7.27962 7.59592 7.12762 7.77992 6.98362C7.96392 6.83162 8.11992 6.66762 8.24792 6.49162C8.37592 6.31562 8.43992 6.12762 8.43992 5.92762C8.43992 5.63962 8.33192 5.39162 8.11592 5.18363C7.90792 4.96763 7.61992 4.85962 7.25192 4.85962C6.85192 4.85962 6.53992 4.99162 6.31592 5.25562C6.09992 5.51162 5.99592 5.82362 6.00392 6.19162C6.00392 6.43962 5.93592 6.64363 5.79992 6.80363C5.67192 6.96363 5.47992 7.04362 5.22392 7.04362C4.96792 7.04362 4.76792 6.96363 4.62392 6.80363C4.48792 6.64363 4.41992 6.43962 4.41992 6.19162C4.41992 5.37562 4.70392 4.72762 5.27192 4.24762C5.83992 3.75962 6.49992 3.51562 7.25192 3.51562C7.99592 3.51562 8.63992 3.73962 9.18392 4.18762C9.73592 4.63562 10.0119 5.23163 10.0119 5.97563ZM7.35992 12.0476C7.10392 12.0476 6.88792 11.9596 6.71192 11.7836C6.53592 11.6076 6.44792 11.3916 6.44792 11.1356C6.43192 10.8876 6.51992 10.6756 6.71192 10.4996C6.91192 10.3236 7.12792 10.2356 7.35992 10.2356C7.59192 10.2356 7.80392 10.3236 7.99592 10.4996C8.17192 10.6916 8.25992 10.9036 8.25992 11.1356C8.25992 11.3676 8.17192 11.5836 7.99592 11.7836C7.81992 11.9756 7.60792 12.0636 7.35992 12.0476Z" fill="white"/>
</svg>