<svg xmlns="http://www.w3.org/2000/svg" width="20" height="20" viewBox="0 0 20 20" fill="none">
<path fill-rule="evenodd" clip-rule="evenodd" d="M0 2C0 0.89543 0.895431 0 2 0H18C19.1046 0 20 0.895431 20 2V7C20 8.10457 19.1046 9 18 9H2C0.895431 9 0 8.10457 0 7V2ZM6 4.5C6 5.32843 5.32843 6 4.5 6C3.67157 6 3 5.32843 3 4.5C3 3.67157 3.67157 3 4.5 3C5.32843 3 6 3.67157 6 4.5ZM8.5 6C9.32843 6 10 5.32843 10 4.5C10 3.67157 9.32843 3 8.5 3C7.67157 3 7 3.67157 7 4.5C7 5.32843 7.67157 6 8.5 6Z" fill="#01162B"/>
<path fill-rule="evenodd" clip-rule="evenodd" d="M0 13C0 11.8954 0.895431 11 2 11H18C19.1046 11 20 11.8954 20 13V18C20 19.1046 19.1046 20 18 20H2C0.895431 20 0 19.1046 0 18V13ZM6 15.5C6 16.3284 5.32843 17 4.5 17C3.67157 17 3 16.3284 3 15.5C3 14.6716 3.67157 14 4.5 14C5.32843 14 6 14.6716 6 15.5ZM8.5 17C9.32843 17 10 16.3284 10 15.5C10 14.6716 9.32843 14 8.5 14C7.67157 14 7 14.6716 7 15.5C7 16.3284 7.67157 17 8.5 17Z" fill="#01162B"/>
</svg>