<svg xmlns="http://www.w3.org/2000/svg" width="28" height="25" viewBox="0 0 28 25" fill="none">
<g opacity="0.5">
<path fill-rule="evenodd" clip-rule="evenodd" d="M18.6882 13.5584C20.046 9.98396 18.6389 5.89034 15.1813 3.94267C11.3153 1.76501 6.34993 3.09465 4.0907 6.91248C1.83147 10.7303 3.13395 15.5906 6.99987 17.7683C10.5331 19.7585 14.9848 18.8192 17.4495 15.7281L22.2807 18.4529C22.8818 18.7919 23.6536 18.5851 24.0047 17.991C24.3558 17.397 24.1532 16.6406 23.5522 16.3016L18.6882 13.5584ZM13.9117 6.08802C16.5779 7.58985 17.4761 10.9418 15.9181 13.5748C14.36 16.2078 10.9355 17.1248 8.26939 15.6229C5.60324 14.1211 4.70497 10.7692 6.26306 8.13616C7.82115 5.50317 11.2456 4.58619 13.9117 6.08802Z" fill="#01162B"/>
</g>
</svg>