<svg xmlns="http://www.w3.org/2000/svg" width="40" height="40" viewBox="0 0 40 40" fill="none">
<circle cx="20" cy="20" r="20" fill="#F5F5F5"/>
<path d="M14 16.7368H16.3684V15.9474H17.1579V15.1579H17.9474V14.3684H17.1579V13.5789H16.3684V12.7895H17.1579V12H17.9474V12.7895H18.7368V13.5789H19.5263V14.3684H21.1053V13.5789H21.8947V12.7895H22.6842V12H23.4737V12.7895H24.2632V13.5789H23.4737V14.3684H22.6842V15.1579H23.4737V15.9474H24.2632V16.7368H26.6316V18.3158H25.0526V19.8947H26.6316V21.4737H25.0526V23.0526H26.6316V24.6316H24.2632V25.4211H23.4737V26.2105H22.6842V27H17.9474V26.2105H17.1579V25.4211H16.3684V24.6316H14V23.0526H15.5789V21.4737H14V19.8947H15.5789V18.3158H14V16.7368ZM21.8947 25.4211V24.6316H22.6842V23.8421H23.4737V17.5263H22.6842V16.7368H21.8947V15.9474H18.7368V16.7368H17.9474V17.5263H17.1579V23.8421H17.9474V24.6316H18.7368V25.4211H21.8947ZM18.7368 21.4737H21.8947V23.0526H18.7368V21.4737ZM18.7368 18.3158H21.8947V19.8947H18.7368V18.3158Z" fill="#01162B"/>
</svg>